<svg width="300" height="59" viewBox="0 0 300 59" fill="none" xmlns="http://www.w3.org/2000/svg">
<g clip-path="url(#clip0_1152_202)">
<path d="M96.6912 42.9797C94.8473 41.06 92.9821 39.2745 91.0816 37.6301C89.1882 35.9858 87.309 34.5319 85.4438 33.2757C87.0052 31.8713 88.6089 30.3892 90.255 28.8366C91.9012 27.284 93.5685 25.7031 95.2641 24.1011C96.9597 22.499 98.5917 20.9605 100.153 19.4785C101.714 18.0035 103.106 16.6555 104.314 15.4416H98.0407C97.0162 16.5567 95.7516 17.8553 94.2397 19.3303C92.7278 20.8053 91.124 22.3367 89.4214 23.9105C87.7187 25.4843 86.0514 27.0511 84.4123 28.6108C82.7732 30.1705 81.4026 31.3984 80.3076 32.3018V0H75.1713V54.5891H80.3076V35.5764C81.6923 36.2751 83.2819 37.3196 85.0694 38.7099C86.8639 40.1002 88.6513 41.6458 90.4458 43.3325C92.2403 45.0193 93.95 46.826 95.582 48.7385C97.214 50.6511 98.6482 52.606 99.8846 54.5962H106.052C104.908 52.8177 103.516 50.9193 101.891 48.8938C100.259 46.8754 98.5281 44.9063 96.6842 42.9867L96.6912 42.9797ZM199.79 23.5718C199.261 21.8074 198.42 20.276 197.261 18.9915C196.102 17.7071 194.591 16.6978 192.718 15.9639C190.846 15.2299 188.571 14.8629 185.887 14.8629C183.202 14.8629 181.005 15.0394 179.132 15.3922C177.26 15.7451 175.883 16.1262 174.985 16.5285L175.699 20.8476C176.384 20.5935 177.465 20.2689 178.935 19.8596C180.411 19.4573 182.644 19.2526 185.646 19.2526C187.752 19.2526 189.447 19.5702 190.74 20.1983C192.033 20.8335 193.029 21.6663 193.743 22.6967C194.456 23.7341 194.916 24.8915 195.128 26.176C195.339 27.4604 195.445 28.7872 195.445 30.1493V32.57C195.234 32.4712 194.852 32.3583 194.301 32.2312C193.75 32.1042 193.093 31.9772 192.323 31.8501C191.56 31.7231 190.768 31.6243 189.956 31.5467C189.136 31.469 188.359 31.4337 187.625 31.4337C185.152 31.4337 182.863 31.6596 180.757 32.1183C178.652 32.57 176.836 33.2898 175.31 34.2779C173.784 35.2589 172.597 36.508 171.757 38.0254C170.916 39.5427 170.492 41.3565 170.492 43.4737C170.492 45.5909 170.873 47.574 171.636 49.1126C172.4 50.6511 173.452 51.9144 174.795 52.8953C176.137 53.8834 177.719 54.5962 179.535 55.0549C181.351 55.5066 183.336 55.7395 185.498 55.7395C187.179 55.7395 188.826 55.676 190.436 55.5489C192.04 55.4219 193.503 55.2596 194.817 55.0549C196.131 54.8502 197.289 54.6667 198.293 54.4903C199.289 54.3139 200.059 54.1516 200.582 53.9963V29.3165C200.582 27.2487 200.32 25.3291 199.79 23.5647V23.5718ZM195.445 50.6793C194.393 50.884 193.114 51.0463 191.616 51.1733C190.118 51.3004 188.366 51.3639 186.367 51.3639C184.735 51.3639 183.272 51.2227 181.987 50.9475C180.694 50.6723 179.592 50.2276 178.666 49.6207C177.748 49.0138 177.034 48.2092 176.533 47.2C176.031 46.1908 175.784 44.9557 175.784 43.4878C175.784 41.8222 176.151 40.4884 176.893 39.4721C177.628 38.4629 178.574 37.6654 179.733 37.0867C180.892 36.508 182.156 36.1269 183.527 35.9505C184.897 35.774 186.212 35.6894 187.476 35.6894C189.687 35.6894 191.425 35.8305 192.69 36.1057C193.955 36.381 194.873 36.6492 195.453 36.9032V50.6793H195.445ZM26.7692 18.9844C25.6105 17.7 24.0986 16.6908 22.2264 15.9568C20.3542 15.2228 18.0793 14.8559 15.3946 14.8559C12.7099 14.8559 10.5127 15.0323 8.64046 15.3852C6.76824 15.738 5.39058 16.1191 4.49332 16.5214L5.20689 20.8406C5.89219 20.5865 6.97313 20.2618 8.44264 19.8525C9.91922 19.4502 12.1518 19.2456 15.1544 19.2456C17.2597 19.2456 18.9553 19.5632 20.2482 20.1913C21.5411 20.8264 22.5373 21.6592 23.2508 22.6896C23.9644 23.727 24.4236 24.8845 24.6356 26.1689C24.8475 27.4534 24.9535 28.7801 24.9535 30.1422V32.5629C24.7415 32.4641 24.36 32.3512 23.809 32.2242C23.2579 32.0971 22.6009 31.9701 21.8308 31.8431C21.0678 31.716 20.2765 31.6172 19.464 31.5396C18.6445 31.462 17.8744 31.4267 17.1326 31.4267C14.6598 31.4267 12.3708 31.6525 10.2654 32.1112C8.16005 32.5629 6.34435 33.2828 4.81831 34.2708C3.29228 35.2518 2.10536 36.501 1.26463 38.0183C0.423898 39.5356 0 41.3494 0 43.4666C0 45.5839 0.381509 47.567 1.14453 49.1055C1.90754 50.644 2.96022 51.9073 4.30257 52.8883C5.64491 53.8763 7.22747 54.5891 9.04317 55.0478C10.8589 55.4995 12.8441 55.7324 15.006 55.7324C16.6875 55.7324 18.3336 55.6689 19.9444 55.5419C21.5482 55.4148 23.0106 55.2525 24.3247 55.0478C25.6388 54.8432 26.7974 54.6597 27.8007 54.4833C28.7968 54.3068 29.5669 54.1445 30.0897 53.9892V29.3094C30.0897 27.2416 29.8283 25.322 29.2984 23.5577C28.7686 21.7933 27.9278 20.2618 26.7692 18.9774V18.9844ZM24.9535 50.6723C23.9008 50.8769 22.622 51.0392 21.1243 51.1663C19.6265 51.2933 17.8744 51.3568 15.875 51.3568C14.243 51.3568 12.7805 51.2157 11.4947 50.9404C10.2018 50.6652 9.09969 50.2206 8.17418 49.6136C7.25573 49.0067 6.54217 48.2022 6.04055 47.1929C5.53894 46.1837 5.29167 44.9487 5.29167 43.4807C5.29167 41.8152 5.65904 40.4813 6.40087 39.4651C7.13562 38.4559 8.08233 37.6584 9.24099 37.0797C10.3996 36.501 11.6643 36.1199 13.0349 35.9434C14.4055 35.767 15.7196 35.6823 16.9842 35.6823C19.1955 35.6823 20.9335 35.8234 22.1981 36.0987C23.4628 36.3739 24.3812 36.6421 24.9606 36.8962V50.6723H24.9535ZM65.2238 20.3536C63.9592 18.7868 62.2989 17.58 60.2501 16.719C58.3284 15.9145 55.9617 15.491 53.1569 15.4416H52.5705C49.7657 15.491 47.3989 15.9145 45.4772 16.719C44.1914 17.2554 43.061 17.9329 42.0861 18.7445V15.4628H36.9428V54.5891H42.079V53.0577H42.0861V34.1508C42.1214 31.7301 42.3333 29.6482 42.7078 27.9262C43.1317 26.0066 43.8099 24.4539 44.7637 23.2683C45.7104 22.0827 46.9326 21.2217 48.4375 20.6923C49.6809 20.2548 51.1645 20.0078 52.8601 19.9301C54.5557 20.0078 56.0394 20.2548 57.2828 20.6923C58.7806 21.2217 60.0099 22.0827 60.9566 23.2683C61.9033 24.4539 62.5886 26.0066 63.0125 27.9262C63.4364 29.8458 63.6413 32.1889 63.6413 34.9695V54.5891H68.7775V33.3745C68.7775 30.6998 68.502 28.2508 67.9509 26.0278C67.3999 23.8047 66.4885 21.9133 65.2238 20.3465V20.3536ZM135.57 15.4346V35.9081C135.534 38.3288 135.33 40.4108 134.948 42.1328C134.524 44.0524 133.846 45.605 132.892 46.7907C131.945 47.9763 130.723 48.8373 129.218 49.3666C127.975 49.8042 126.491 50.0512 124.796 50.1288C123.1 50.0512 121.616 49.8042 120.373 49.3666C118.875 48.8373 117.646 47.9763 116.699 46.7907C115.753 45.605 115.067 44.0524 114.643 42.1328C114.219 40.2132 114.015 37.8701 114.015 35.0895V15.4275H108.878V36.6774C108.878 39.3522 109.154 41.8011 109.705 44.0242C110.256 46.2473 111.167 48.1386 112.432 49.7054C113.697 51.2721 115.357 52.4789 117.406 53.34C119.327 54.1445 121.694 54.5679 124.499 54.6173H125.078C127.883 54.5679 130.25 54.1445 132.172 53.34C133.457 52.8036 134.588 52.1261 135.563 51.3145V54.5962H140.706V36.6845V15.4346H135.563H135.57ZM162.735 15.4063C159.93 15.4557 157.563 15.8792 155.641 16.6837C154.356 17.2201 153.225 17.8976 152.257 18.7092V15.4275H147.114V54.5891H152.25V53.0224H152.257V34.1156C152.293 31.6949 152.497 29.6129 152.879 27.8909C153.303 25.9713 153.981 24.4187 154.935 23.233C155.882 22.0474 157.104 21.1864 158.609 20.6571C159.852 20.2195 161.336 19.9725 163.031 19.8949C164.727 19.9725 166.712 20.3324 167.956 20.77L168.98 16.5285C167.058 15.7239 166.119 15.4557 163.321 15.4063H162.735Z" fill="#FAFBFF"/>
<path d="M282.253 32.6763C282.253 21.2503 274.962 11.5252 264.774 7.89062C261.461 9.07627 258.451 10.9041 255.9 13.226C261.185 18.0392 264.506 24.9766 264.506 32.6833C264.506 40.39 261.185 47.3275 255.9 52.1406C258.451 54.4625 261.461 56.2904 264.774 57.476C274.962 53.8344 282.253 44.1163 282.253 32.6904V32.6763Z" fill="#FAFBFF" fill-opacity="0.65"/>
<path d="M255.9 13.2192C253.35 10.8973 250.34 9.06943 247.027 7.88379C236.839 11.5254 229.548 21.2435 229.548 32.6694C229.548 44.0954 236.839 53.8205 247.027 57.4551C250.34 56.2694 253.35 54.4416 255.9 52.1197C250.616 47.3065 247.295 40.3691 247.295 32.6624C247.295 24.9557 250.616 18.0182 255.9 13.2051V13.2192Z" fill="#FAFBFF" fill-opacity="0.5"/>
<path d="M273.648 6.35201C270.532 6.35201 267.55 6.89543 264.774 7.88347C274.962 11.5251 282.253 21.2432 282.253 32.6691C282.253 44.0951 274.962 53.8202 264.774 57.4548C267.55 58.4428 270.532 58.9862 273.648 58.9862C288.201 58.9862 300 47.2003 300 32.6621C300 18.1238 288.201 6.33789 273.648 6.33789V6.35201Z" fill="#FAFBFF" fill-opacity="0.5"/>
<path d="M247.295 32.676C247.295 40.3827 250.616 47.3202 255.901 52.1333C261.185 47.3202 264.506 40.3827 264.506 32.676C264.506 24.9693 261.185 18.0319 255.901 13.2188C250.616 18.0319 247.295 24.9693 247.295 32.676Z" fill="#FAFBFF"/>
<path d="M229.548 32.6765C229.548 21.2505 236.839 11.5254 247.027 7.89083C244.25 6.9028 241.269 6.35938 238.153 6.35938C223.599 6.35938 211.801 18.1453 211.801 32.6835C211.801 47.2218 223.599 59.0077 238.153 59.0077C241.269 59.0077 244.25 58.4643 247.027 57.4762C236.839 53.8346 229.548 44.1166 229.548 32.6906V32.6765Z" fill="#FAFBFF" fill-opacity="0.25"/>
<path d="M264.781 7.88324C262.004 6.89521 259.023 6.34473 255.907 6.34473C252.792 6.34473 249.803 6.88815 247.034 7.88324C250.347 9.06889 253.357 10.8897 255.907 13.2116C258.458 10.8897 261.467 9.06183 264.781 7.88324ZM255.907 52.1262C253.357 54.4481 250.347 56.276 247.034 57.4545C249.81 58.4426 252.799 58.9931 255.907 58.9931C259.016 58.9931 262.011 58.4496 264.781 57.4545C261.467 56.2689 258.458 54.4481 255.907 52.1262Z" fill="#FAFBFF" fill-opacity="0.75"/>
<path d="M289.819 6.6976C289.819 6.00597 289.954 5.36375 290.215 4.75681C290.476 4.15693 290.837 3.62763 291.289 3.17595C291.741 2.72428 292.271 2.36435 292.871 2.10322C293.472 1.8421 294.122 1.70801 294.814 1.70801C295.507 1.70801 296.15 1.8421 296.757 2.10322C297.358 2.36435 297.888 2.72428 298.34 3.17595C298.792 3.62763 299.152 4.15693 299.414 4.75681C299.675 5.35669 299.809 6.00597 299.809 6.6976C299.809 7.38923 299.675 8.03145 299.414 8.63839C299.152 9.24533 298.792 9.76758 298.34 10.2193C297.888 10.6709 297.358 11.0309 296.757 11.292C296.15 11.5531 295.507 11.6872 294.814 11.6872C294.122 11.6872 293.479 11.5531 292.871 11.292C292.264 11.0309 291.741 10.6709 291.289 10.2193C290.837 9.76758 290.476 9.23827 290.215 8.63839C289.954 8.03851 289.819 7.38923 289.819 6.6976ZM290.702 6.6976C290.702 7.26219 290.808 7.7915 291.027 8.29258C291.239 8.79365 291.536 9.23121 291.904 9.5982C292.278 9.97224 292.709 10.2616 293.211 10.4733C293.712 10.685 294.242 10.798 294.807 10.798C295.372 10.798 295.902 10.6921 296.404 10.4733C296.906 10.2616 297.344 9.96519 297.711 9.5982C298.085 9.22416 298.375 8.79365 298.587 8.29258C298.799 7.7915 298.912 7.26219 298.912 6.6976C298.912 6.13301 298.806 5.6037 298.587 5.10263C298.368 4.60155 298.078 4.16399 297.711 3.797C297.336 3.42296 296.906 3.13361 296.404 2.92188C295.902 2.71016 295.372 2.59724 294.807 2.59724C294.242 2.59724 293.712 2.7031 293.211 2.92188C292.709 3.14066 292.271 3.43002 291.904 3.797C291.536 4.16399 291.239 4.60155 291.027 5.10263C290.815 5.6037 290.702 6.13301 290.702 6.6976ZM292.893 3.81818H295.097C295.789 3.81818 296.291 3.96638 296.623 4.26279C296.948 4.5592 297.11 4.98265 297.11 5.54018C297.11 6.04126 296.983 6.4153 296.729 6.66937C296.475 6.91638 296.15 7.06459 295.761 7.11399L297.238 9.52763H296.135L294.715 7.19162H293.952V9.52763H292.907V3.81112L292.893 3.81818ZM293.938 6.30239H294.701C294.864 6.30239 295.026 6.30239 295.182 6.28121C295.344 6.2671 295.485 6.23181 295.62 6.18241C295.747 6.12595 295.853 6.04832 295.938 5.94246C296.015 5.8366 296.058 5.68839 296.058 5.49784C296.058 5.30729 296.015 5.15908 295.938 5.05322C295.86 4.94736 295.754 4.86267 295.62 4.81327C295.493 4.75681 295.344 4.72858 295.182 4.72152C295.019 4.71447 294.857 4.70741 294.701 4.70741H293.938V6.30239Z" fill="#FAFBFF"/>
</g>
<defs>
<clipPath id="clip0_1152_202">
<rect width="300" height="59" fill="white"/>
</clipPath>
</defs>
</svg>
