<svg width="300" height="90" viewBox="0 0 300 90" fill="none" xmlns="http://www.w3.org/2000/svg">
<g clip-path="url(#clip0_602_1219)">
<path d="M216.1 12.214L190.3 61.3686C189.75 62.4198 188.15 62.4198 187.6 61.3686L161.8 12.214C161.55 11.7134 161.05 11.4131 160.5 11.4131H148C147.15 11.4131 146.6 12.3141 147 13.0649L187.65 89.2496C188.2 90.3007 189.7 90.3007 190.3 89.2496L230.95 13.0649C231.35 12.3141 230.8 11.4131 229.95 11.4131H217.45C216.85 11.4131 216.35 11.7134 216.1 12.214Z" fill="#FAFBFF"/>
<path d="M230.75 77.8367L256.55 28.6821C257.1 27.6309 258.7 27.6309 259.25 28.6821L285.05 77.8367C285.3 78.3372 285.8 78.6376 286.35 78.6376H298.85C299.7 78.6376 300.25 77.7366 299.85 76.9857L259.2 0.801071C258.65 -0.250097 257.15 -0.250097 256.55 0.801071L215.9 76.9857C215.5 77.7366 216.05 78.6376 216.9 78.6376H229.4C229.95 78.5875 230.5 78.2872 230.75 77.8367Z" fill="#FAFBFF"/>
<path d="M54.4 47.6531C59.8 44.9501 63.15 39.0936 63.15 31.9357C63.15 19.672 53.6 11.3628 40.15 11.3628H1.5C0.65 11.3628 0 12.0135 0 12.8645V88.4985C0 89.3494 0.65 90.0002 1.5 90.0002H38.5C57 90.0002 66.75 82.0413 66.75 66.424C66.75 51.2071 54.4 47.6531 54.4 47.6531ZM14.5 22.7755H37.45C45.9 22.7755 50.2 26.3795 50.2 33.0869C50.2 39.7944 45.9 43.3984 37.45 43.3984H14.5C13.7 43.3984 13 42.7477 13 41.8967V24.2772C13 23.4262 13.65 22.7755 14.5 22.7755ZM37.75 78.5875H14.5C13.65 78.5875 13 77.9368 13 77.0858V56.2126C13 55.4117 13.65 54.711 14.5 54.711H37.75C48.85 54.711 53.8 57.8645 53.8 66.6242C53.75 75.484 48.95 78.5875 37.75 78.5875Z" fill="#FAFBFF"/>
<path d="M133.75 47.6531C139.15 44.9501 142.5 39.0936 142.5 31.9357C142.5 19.672 132.95 11.3628 119.5 11.3628H80.7998C79.9498 11.3628 79.2998 12.0135 79.2998 12.8645V88.4985C79.2998 89.3494 79.9498 90.0002 80.7998 90.0002H117.8C136.3 90.0002 146.05 82.0413 146.05 66.424C146.1 51.2071 133.75 47.6531 133.75 47.6531ZM93.8498 22.7755H116.8C125.25 22.7755 129.55 26.3795 129.55 33.0869C129.55 39.7944 125.25 43.3984 116.8 43.3984H93.8498C92.9998 43.3984 92.3498 42.7477 92.3498 41.8967V24.2772C92.3498 23.4262 92.9998 22.7755 93.8498 22.7755ZM117.05 78.5875H93.7998C92.9998 78.5875 92.2998 77.9368 92.2998 77.0858V56.2126C92.2998 55.4117 92.9498 54.711 93.7998 54.711H117.05C128.15 54.711 133.1 57.8645 133.1 66.6242C133.1 75.484 128.25 78.5875 117.05 78.5875Z" fill="#FAFBFF"/>
</g>
<defs>
<clipPath id="clip0_602_1219">
<rect width="300" height="90" fill="white"/>
</clipPath>
</defs>
</svg>
