<svg width="300" height="43" viewBox="0 0 300 43" fill="none" xmlns="http://www.w3.org/2000/svg">
<g clip-path="url(#clip0_602_1206)">
<path fill-rule="evenodd" clip-rule="evenodd" d="M296.102 37.8707V38.945H296.747C297.16 38.945 297.391 38.8124 297.391 38.3994C297.391 38.0693 297.21 37.8707 296.83 37.8707H296.102ZM295.541 37.3917H296.83C297.573 37.3917 297.969 37.7716 297.969 38.3664C297.969 38.8952 297.738 39.1923 297.358 39.3411L297.953 40.4317H297.325L296.78 39.4239H296.102V40.4317H295.541V37.3917ZM296.73 41.6542C298.267 41.6542 299.34 40.7288 299.34 38.978C299.34 37.2429 298.267 36.3174 296.73 36.3174C295.177 36.3174 294.103 37.2429 294.103 38.978C294.103 40.7288 295.177 41.6542 296.73 41.6542ZM296.73 35.8876C298.696 35.8876 299.853 37.1276 299.853 38.978C299.853 40.8284 298.696 42.0672 296.73 42.0672C294.748 42.0672 293.607 40.8284 293.607 38.978C293.607 37.1276 294.748 35.8876 296.73 35.8876ZM151.064 41.7012L139.869 22.2944L150.373 10.8562H139.694L128.772 23.1353V0.00115835H119.357V41.7H128.772V34.1983L133.283 29.3705L140.347 41.7012H151.064ZM290.944 41.7012L279.749 22.2944L290.252 10.8562H279.696L268.652 23.1353V0.00115835H259.236V41.7H268.652V34.1983L273.163 29.3705L280.227 41.7012H290.944ZM71.371 31.3824C71.371 34.211 68.638 36.077 65.5257 36.077C62.5824 36.077 61.1456 34.5649 61.1456 32.473C61.1456 30.2629 62.7695 28.6541 66.0434 28.6541C68.0687 28.6541 69.8907 29.001 71.371 29.345V31.3824ZM84.2189 41.1707V34.6344C83.8164 34.738 83.2077 34.8568 82.6176 34.8568C81.373 34.8568 80.7851 34.2423 80.7851 33.0915V22.2817C80.7851 14.1956 75.3654 9.87336 66.384 9.87336C60.5571 9.87336 55.5336 12.0006 52.3986 14.7822L57.6429 20.6902C59.74 18.8647 62.5315 17.6745 65.2129 17.6745C69.3643 17.6745 71.3699 19.7519 71.3699 23.199V24.2102C69.3782 23.729 66.9295 23.2795 63.8959 23.2795C56.3085 23.2795 51.3996 26.905 51.3996 32.9728C51.3996 39.1651 55.4965 42.4234 61.862 42.4234C66.2288 42.4234 70.0813 40.6413 72.1402 38.3253C73.3743 41.3676 76.0112 42.1894 78.6376 42.1894C80.3658 42.1894 82.4311 41.894 84.2189 41.1707ZM163.423 19.4033H170.712C175.248 19.4027 177.426 16.8649 177.426 13.8162C177.426 10.233 175.333 8.27027 170.712 8.26969H163.423V19.4033ZM177.402 41.7L169.492 27.6707H163.423V41.7H153.616V0.00115835H171.265C180.813 0.00115835 187.5 4.54923 187.5 13.5411C187.5 19.2892 184.643 23.301 179.613 25.8139L188.758 41.7H177.402ZM257.01 18.2745C254.391 12.827 249.521 9.79402 242.162 9.79402C233.454 9.79402 225.69 15.2652 225.69 26.0751C225.69 36.6423 232.524 42.4865 242.031 42.4865C248.712 42.4865 254.329 39.8195 256.951 34.0627L249.288 30.1048C247.913 32.6774 245.741 34.2695 242.348 34.2695C237.974 34.2695 235.084 31.1195 235.084 26.0618C235.084 20.989 238.345 17.9236 242.283 17.9236C245.328 17.9236 247.686 19.3332 249.1 22.3216L257.01 18.2745ZM117.009 18.2745C114.389 12.827 109.52 9.79402 102.16 9.79402C93.4523 9.79402 85.6888 15.2652 85.6888 26.0751C85.6888 36.6423 92.5222 42.4865 102.03 42.4865C108.711 42.4865 114.327 39.8195 116.95 34.0627L109.286 30.1048C107.911 32.6774 105.738 34.2695 102.347 34.2695C97.972 34.2695 95.0826 31.1195 95.0826 26.0618C95.0826 20.989 98.3438 17.9236 102.281 17.9236C105.326 17.9236 107.684 19.3332 109.098 22.3216L117.009 18.2745ZM23.9149 29.0774C23.9149 31.8133 22.0326 33.6174 18.4552 33.6174L9.89884 33.618V24.5369H18.4552C21.8676 24.5369 23.9149 26.272 23.9149 29.0774ZM23.0218 12.3087C23.0218 15.139 21.2102 16.7861 17.7579 16.7861H9.90289V8.0861H17.7579C20.927 8.08668 23.0218 9.49228 23.0218 12.3087ZM34.3349 29.6844C34.3349 25.0042 31.9089 21.3886 27.5595 19.8023C31.6795 17.5703 33.1297 14.5743 33.1297 11.0907C33.1297 5.0056 28.7224 -0.0005791 18.8948 5.02452e-08L0 0.00115835V41.7H19.6958C29.5923 41.7 34.3349 36.7726 34.3349 29.6844ZM213.395 26.0971C213.395 31.3633 209.885 34.3303 205.773 34.3303C201.66 34.3303 198.151 31.3627 198.151 26.0971C198.151 20.7718 201.656 17.9293 205.773 17.9293C209.89 17.9293 213.395 20.7712 213.395 26.0971ZM222.765 26.0954C222.765 16.0454 214.963 9.74884 205.773 9.74884C196.581 9.74884 188.78 16.0436 188.78 26.0954C188.78 36.1517 196.579 42.5102 205.773 42.5102C214.965 42.5102 222.765 36.15 222.765 26.0954ZM38.1394 41.7H47.6421V0.00115835H38.1394V41.7Z" fill="#FAFBFF"/>
</g>
<defs>
<clipPath id="clip0_602_1206">
<rect width="300" height="42.8571" fill="white"/>
</clipPath>
</defs>
</svg>
