<svg width="300" height="43" viewBox="0 0 300 43" fill="none" xmlns="http://www.w3.org/2000/svg">
<path fill-rule="evenodd" clip-rule="evenodd" d="M296.102 37.8619V38.9362H296.747C297.16 38.9362 297.391 38.8036 297.391 38.3906C297.391 38.0605 297.21 37.8619 296.83 37.8619H296.102ZM295.541 37.3829H296.83C297.573 37.3829 297.969 37.7628 297.969 38.3576C297.969 38.8864 297.738 39.1835 297.358 39.3323L297.953 40.4229H297.325L296.78 39.4151H296.102V40.4229H295.541V37.3829ZM296.73 41.6455C298.267 41.6455 299.34 40.72 299.34 38.9692C299.34 37.2341 298.267 36.3086 296.73 36.3086C295.177 36.3086 294.103 37.2341 294.103 38.9692C294.103 40.72 295.177 41.6455 296.73 41.6455ZM296.73 35.8789C298.696 35.8789 299.853 37.1188 299.853 38.9692C299.853 40.8196 298.696 42.0584 296.73 42.0584C294.748 42.0584 293.607 40.8196 293.607 38.9692C293.607 37.1188 294.748 35.8789 296.73 35.8789ZM151.064 41.6924L139.869 22.2856L150.373 10.8474H139.694L128.772 23.1265V-0.00763071H119.357V41.6912H128.772V34.1895L133.283 29.3617L140.347 41.6924H151.064ZM290.944 41.6924L279.749 22.2856L290.252 10.8474H279.696L268.652 23.1265V-0.00763071H259.236V41.6912H268.652V34.1895L273.163 29.3617L280.227 41.6924H290.944ZM71.371 31.3736C71.371 34.2022 68.638 36.0682 65.5257 36.0682C62.5824 36.0682 61.1456 34.5561 61.1456 32.4642C61.1456 30.2541 62.7695 28.6453 66.0434 28.6453C68.0687 28.6453 69.8907 28.9922 71.371 29.3362V31.3736ZM84.2189 41.1619V34.6256C83.8164 34.7292 83.2077 34.848 82.6176 34.848C81.373 34.848 80.7851 34.2335 80.7851 33.0827V22.2729C80.7851 14.1868 75.3654 9.86457 66.384 9.86457C60.5571 9.86457 55.5336 11.9918 52.3986 14.7734L57.6429 20.6814C59.74 18.8559 62.5315 17.6657 65.2129 17.6657C69.3643 17.6657 71.3699 19.7431 71.3699 23.1902V24.2014C69.3782 23.7202 66.9295 23.2707 63.8959 23.2707C56.3085 23.2707 51.3996 26.8962 51.3996 32.964C51.3996 39.1563 55.4965 42.4146 61.862 42.4146C66.2288 42.4146 70.0813 40.6325 72.1402 38.3165C73.3743 41.3588 76.0112 42.1806 78.6376 42.1806C80.3658 42.1806 82.4311 41.8852 84.2189 41.1619ZM163.423 19.3945H170.712C175.248 19.3939 177.426 16.8561 177.426 13.8074C177.426 10.2242 175.333 8.26148 170.712 8.2609H163.423V19.3945ZM177.402 41.6912L169.492 27.6619H163.423V41.6912H153.616V-0.00763071H171.265C180.813 -0.00763071 187.5 4.54044 187.5 13.5323C187.5 19.2804 184.643 23.2922 179.613 25.8051L188.758 41.6912H177.402ZM257.01 18.2657C254.391 12.8182 249.521 9.78523 242.162 9.78523C233.454 9.78523 225.69 15.2565 225.69 26.0663C225.69 36.6335 232.524 42.4777 242.031 42.4777C248.712 42.4777 254.329 39.8107 256.951 34.054L249.288 30.096C247.913 32.6686 245.741 34.2607 242.348 34.2607C237.974 34.2607 235.084 31.1107 235.084 26.053C235.084 20.9802 238.345 17.9148 242.283 17.9148C245.328 17.9148 247.686 19.3244 249.1 22.3128L257.01 18.2657ZM117.009 18.2657C114.389 12.8182 109.52 9.78523 102.16 9.78523C93.4523 9.78523 85.6888 15.2565 85.6888 26.0663C85.6888 36.6335 92.5222 42.4777 102.03 42.4777C108.711 42.4777 114.327 39.8107 116.95 34.054L109.286 30.096C107.911 32.6686 105.738 34.2607 102.347 34.2607C97.972 34.2607 95.0826 31.1107 95.0826 26.053C95.0826 20.9802 98.3438 17.9148 102.281 17.9148C105.326 17.9148 107.684 19.3244 109.098 22.3128L117.009 18.2657ZM23.9149 29.0686C23.9149 31.8045 22.0326 33.6086 18.4552 33.6086L9.89884 33.6092V24.5281H18.4552C21.8676 24.5281 23.9149 26.2632 23.9149 29.0686ZM23.0218 12.2999C23.0218 15.1302 21.2102 16.7773 17.7579 16.7773H9.90289V8.07731H17.7579C20.927 8.07789 23.0218 9.48349 23.0218 12.2999ZM34.3349 29.6756C34.3349 24.9955 31.9089 21.3798 27.5595 19.7935C31.6795 17.5615 33.1297 14.5655 33.1297 11.0819C33.1297 4.99681 28.7224 -0.00936816 18.8948 -0.00878901L0 -0.00763071V41.6912H19.6958C29.5923 41.6912 34.3349 36.7638 34.3349 29.6756ZM213.395 26.0883C213.395 31.3545 209.885 34.3215 205.773 34.3215C201.66 34.3215 198.151 31.3539 198.151 26.0883C198.151 20.763 201.656 17.9206 205.773 17.9206C209.89 17.9206 213.395 20.7624 213.395 26.0883ZM222.765 26.0866C222.765 16.0366 214.963 9.74005 205.773 9.74005C196.581 9.74005 188.78 16.0348 188.78 26.0866C188.78 36.1429 196.579 42.5014 205.773 42.5014C214.965 42.5014 222.765 36.1412 222.765 26.0866ZM38.1394 41.6912H47.6421V-0.00763071H38.1394V41.6912Z" fill="#485069"/>
</svg>
