<svg width="300" height="48" viewBox="0 0 300 48" fill="none" xmlns="http://www.w3.org/2000/svg">
<g clip-path="url(#clip0_602_1254)">
<path d="M0 16.6193L23.8635 14.0625L47.7268 16.6193V21.3067H0V16.6193Z" fill="#FAFBFF"/>
<path d="M0 26.4199H47.7268V31.1073L23.8635 33.6642L0 31.1073V26.4199Z" fill="#FAFBFF"/>
<path d="M0 35.7949L23.8635 38.7779L47.7268 35.7949V40.9086L23.8635 47.7267L0 40.9086V35.7949Z" fill="#FAFBFF"/>
<path d="M0 6.81812L23.8635 0L47.7268 6.81812V11.9317L23.8635 8.94878L0 11.9317V6.81812Z" fill="#FAFBFF"/>
<path d="M74.3422 37.8923C72.2513 37.8923 70.3041 37.5525 68.5007 36.873C66.7235 36.1673 65.1683 35.1872 63.8354 33.9327C62.5286 32.6519 61.5093 31.1491 60.7774 29.4241C60.0456 27.6991 59.6797 25.8173 59.6797 23.7787C59.6797 21.74 60.0456 19.8582 60.7774 18.1332C61.5093 16.4082 62.5416 14.9184 63.8746 13.6639C65.2075 12.3832 66.7627 11.4031 68.5399 10.7236C70.3172 10.0179 72.2643 9.66504 74.3814 9.66504C76.6292 9.66504 78.6809 10.0571 80.5365 10.8412C82.3922 11.5991 83.9604 12.736 85.2411 14.252L81.9479 17.3491C80.9547 16.2776 79.8439 15.4804 78.6155 14.9577C77.3871 14.4088 76.0541 14.1344 74.6166 14.1344C73.1792 14.1344 71.8593 14.3696 70.657 14.84C69.4808 15.3105 68.4485 15.977 67.5598 16.8395C66.6973 17.702 66.0178 18.7213 65.5212 19.8974C65.0507 21.0736 64.8155 22.3673 64.8155 23.7787C64.8155 25.19 65.0507 26.4838 65.5212 27.6599C66.0178 28.8361 66.6973 29.8554 67.5598 30.7179C68.4485 31.5804 69.4808 32.2469 70.657 32.7173C71.8593 33.1878 73.1792 33.423 74.6166 33.423C76.0541 33.423 77.3871 33.1616 78.6155 32.6389C79.8439 32.09 80.9547 31.2667 81.9479 30.169L85.2411 33.3054C83.9604 34.7952 82.3922 35.9321 80.5365 36.7162C78.6809 37.5003 76.616 37.8923 74.3422 37.8923Z" fill="#FAFBFF"/>
<path d="M89.458 37.4999V8.41016H94.3586V37.4999H89.458Z" fill="#FAFBFF"/>
<path d="M110.435 37.774C108.108 37.774 106.07 37.3166 104.319 36.4018C102.594 35.4609 101.247 34.1802 100.281 32.5598C99.3401 30.9393 98.8696 29.0967 98.8696 27.0319C98.8696 24.941 99.3264 23.0984 100.242 21.5041C101.183 19.8836 102.463 18.616 104.084 17.7013C105.73 16.7864 107.599 16.3291 109.69 16.3291C111.729 16.3291 113.545 16.7734 115.14 17.6621C116.733 18.5506 117.988 19.8052 118.903 21.4257C119.818 23.0461 120.275 24.9541 120.275 27.1496C120.275 27.3586 120.262 27.5938 120.236 27.8552C120.236 28.1165 120.222 28.3649 120.197 28.6001H102.751V25.3461H117.609L115.688 26.3655C115.714 25.1632 115.466 24.1046 114.943 23.1899C114.42 22.2751 113.702 21.5563 112.787 21.0336C111.898 20.5109 110.866 20.2496 109.69 20.2496C108.488 20.2496 107.429 20.5109 106.515 21.0336C105.626 21.5563 104.92 22.2882 104.397 23.2291C103.901 24.1438 103.653 25.2285 103.653 26.4831V27.2672C103.653 28.5217 103.94 29.6325 104.515 30.5996C105.09 31.5665 105.9 32.3115 106.946 32.8342C107.991 33.3569 109.193 33.6183 110.553 33.6183C111.729 33.6183 112.787 33.4353 113.728 33.0694C114.669 32.7035 115.505 32.1285 116.237 31.3444L118.864 34.3632C117.923 35.4609 116.733 36.3103 115.296 36.9115C113.885 37.4864 112.264 37.774 110.435 37.774Z" fill="#FAFBFF"/>
<path d="M137.684 37.4996V33.2655L137.41 32.3638V24.9541C137.41 23.5166 136.979 22.4058 136.116 21.6217C135.254 20.8115 133.947 20.4064 132.196 20.4064C131.02 20.4064 129.856 20.5893 128.707 20.9552C127.582 21.3211 126.629 21.8308 125.845 22.4842L123.924 18.9166C125.048 18.0541 126.381 17.4137 127.923 16.9956C129.491 16.5512 131.111 16.3291 132.784 16.3291C135.815 16.3291 138.155 17.0609 139.801 18.5246C141.475 19.962 142.311 22.1967 142.311 25.2285V37.4996H137.684ZM131.098 37.774C129.53 37.774 128.158 37.5126 126.982 36.9899C125.805 36.441 124.891 35.6961 124.237 34.7552C123.61 33.7882 123.296 32.7035 123.296 31.5013C123.296 30.3251 123.571 29.2666 124.12 28.3257C124.695 27.3848 125.622 26.6399 126.903 26.091C128.184 25.5422 129.883 25.2677 132 25.2677H138.076V28.5217H132.353C130.68 28.5217 129.556 28.7961 128.981 29.345C128.406 29.8677 128.119 30.5211 128.119 31.3052C128.119 32.1938 128.471 32.8995 129.177 33.4223C129.883 33.945 130.863 34.2064 132.117 34.2064C133.32 34.2064 134.391 33.9319 135.332 33.3831C136.3 32.8342 136.992 32.024 137.41 30.9524L138.233 33.8927C137.763 35.1211 136.913 36.0752 135.685 36.7547C134.482 37.4342 132.953 37.774 131.098 37.774Z" fill="#FAFBFF"/>
<path d="M148.208 37.4996V16.5643H152.873V22.3274L152.324 20.6416C152.951 19.2302 153.931 18.1586 155.264 17.4268C156.624 16.695 158.309 16.3291 160.322 16.3291V20.9944C160.113 20.9421 159.917 20.916 159.734 20.916C159.551 20.8899 159.368 20.8768 159.185 20.8768C157.329 20.8768 155.852 21.4257 154.755 22.5234C153.657 23.595 153.108 25.2024 153.108 27.3456V37.4996H148.208Z" fill="#FAFBFF"/>
<path d="M184.092 37.8923C181.948 37.8923 179.897 37.5917 177.937 36.9906C175.977 36.3633 174.421 35.5662 173.271 34.5991L175.036 30.6395C176.133 31.502 177.492 32.2207 179.113 32.7957C180.733 33.3707 182.393 33.6582 184.092 33.6582C185.529 33.6582 186.692 33.5014 187.581 33.1878C188.469 32.8741 189.123 32.4559 189.541 31.9332C189.959 31.3844 190.169 30.7701 190.169 30.0906C190.169 29.2542 189.868 28.5877 189.267 28.0912C188.665 27.5684 187.881 27.1633 186.915 26.8758C185.974 26.5622 184.915 26.2746 183.739 26.0133C182.589 25.7519 181.426 25.4513 180.25 25.1116C179.099 24.7457 178.041 24.2883 177.074 23.7395C176.133 23.1644 175.362 22.4065 174.761 21.4656C174.16 20.5247 173.86 19.3224 173.86 17.8588C173.86 16.369 174.252 15.0099 175.036 13.7815C175.845 12.527 177.061 11.5337 178.682 10.802C180.328 10.044 182.406 9.66504 184.915 9.66504C186.562 9.66504 188.195 9.8741 189.816 10.2923C191.436 10.7104 192.847 11.3116 194.05 12.0957L192.443 16.0554C191.214 15.3235 189.946 14.7877 188.64 14.448C187.332 14.082 186.078 13.8991 184.876 13.8991C183.465 13.8991 182.314 14.069 181.426 14.4088C180.564 14.7485 179.923 15.1929 179.505 15.7417C179.113 16.2906 178.917 16.9179 178.917 17.6236C178.917 18.4599 179.204 19.1394 179.779 19.6622C180.38 20.1587 181.152 20.5508 182.093 20.8383C183.059 21.1258 184.131 21.4133 185.307 21.7008C186.483 21.9621 187.646 22.2627 188.796 22.6025C189.973 22.9423 191.031 23.3866 191.972 23.9355C192.939 24.4844 193.71 25.2292 194.285 26.1702C194.886 27.1111 195.187 28.3002 195.187 29.7378C195.187 31.2014 194.781 32.5605 193.971 33.815C193.187 35.0434 191.972 36.0366 190.325 36.7946C188.679 37.5263 186.601 37.8923 184.092 37.8923Z" fill="#FAFBFF"/>
<path d="M207.453 37.7743C205.154 37.7743 203.376 37.1862 202.121 36.0101C200.867 34.8078 200.24 33.0436 200.24 30.7175V11.9385H205.14V30.5998C205.14 31.593 205.389 32.364 205.885 32.9129C206.408 33.4618 207.127 33.7362 208.041 33.7362C209.139 33.7362 210.054 33.4486 210.786 32.8737L212.158 36.3629C211.583 36.8334 210.878 37.1862 210.041 37.4214C209.205 37.6567 208.342 37.7743 207.453 37.7743ZM196.79 20.6419V16.7214H210.746V20.6419H196.79Z" fill="#FAFBFF"/>
<path d="M215.993 37.4996V16.5643H220.659V22.3274L220.11 20.6416C220.737 19.2302 221.717 18.1586 223.05 17.4268C224.409 16.695 226.095 16.3291 228.107 16.3291V20.9944C227.899 20.9421 227.703 20.916 227.519 20.916C227.337 20.8899 227.154 20.8768 226.97 20.8768C225.115 20.8768 223.638 21.4257 222.54 22.5234C221.443 23.595 220.894 25.2024 220.894 27.3456V37.4996H215.993Z" fill="#FAFBFF"/>
<path d="M241.513 37.774C239.186 37.774 237.147 37.3166 235.397 36.4018C233.672 35.4609 232.325 34.1802 231.359 32.5598C230.418 30.9393 229.947 29.0967 229.947 27.0319C229.947 24.941 230.404 23.0984 231.319 21.5041C232.26 19.8836 233.54 18.616 235.161 17.7013C236.808 16.7864 238.676 16.3291 240.768 16.3291C242.806 16.3291 244.623 16.7734 246.217 17.6621C247.811 18.5506 249.065 19.8052 249.981 21.4257C250.895 23.0461 251.353 24.9541 251.353 27.1496C251.353 27.3586 251.339 27.5938 251.314 27.8552C251.314 28.1165 251.3 28.3649 251.275 28.6001H233.829V25.3461H248.687L246.766 26.3655C246.792 25.1632 246.544 24.1046 246.021 23.1899C245.498 22.2751 244.779 21.5563 243.865 21.0336C242.976 20.5109 241.944 20.2496 240.768 20.2496C239.565 20.2496 238.507 20.5109 237.592 21.0336C236.703 21.5563 235.998 22.2882 235.475 23.2291C234.978 24.1438 234.73 25.2285 234.73 26.4831V27.2672C234.73 28.5217 235.017 29.6325 235.593 30.5996C236.167 31.5665 236.978 32.3115 238.023 32.8342C239.068 33.3569 240.271 33.6183 241.63 33.6183C242.806 33.6183 243.865 33.4353 244.806 33.0694C245.747 32.7035 246.583 32.1285 247.315 31.3444L249.942 34.3632C249.001 35.4609 247.811 36.3103 246.374 36.9115C244.963 37.4864 243.342 37.774 241.513 37.774Z" fill="#FAFBFF"/>
<path d="M265.705 37.774C263.379 37.774 261.34 37.3166 259.589 36.4018C257.864 35.4609 256.518 34.1802 255.551 32.5598C254.61 30.9393 254.139 29.0967 254.139 27.0319C254.139 24.941 254.597 23.0984 255.511 21.5041C256.452 19.8836 257.733 18.616 259.353 17.7013C261 16.7864 262.869 16.3291 264.96 16.3291C266.998 16.3291 268.814 16.7734 270.409 17.6621C272.004 18.5506 273.258 19.8052 274.173 21.4257C275.087 23.0461 275.545 24.9541 275.545 27.1496C275.545 27.3586 275.532 27.5938 275.506 27.8552C275.506 28.1165 275.493 28.3649 275.466 28.6001H258.02V25.3461H272.879L270.958 26.3655C270.984 25.1632 270.735 24.1046 270.213 23.1899C269.691 22.2751 268.971 21.5563 268.057 21.0336C267.168 20.5109 266.136 20.2496 264.96 20.2496C263.757 20.2496 262.699 20.5109 261.784 21.0336C260.895 21.5563 260.189 22.2882 259.667 23.2291C259.17 24.1438 258.922 25.2285 258.922 26.4831V27.2672C258.922 28.5217 259.209 29.6325 259.785 30.5996C260.36 31.5665 261.17 32.3115 262.215 32.8342C263.261 33.3569 264.463 33.6183 265.822 33.6183C266.998 33.6183 268.057 33.4353 268.998 33.0694C269.939 32.7035 270.775 32.1285 271.507 31.3444L274.133 34.3632C273.193 35.4609 272.004 36.3103 270.566 36.9115C269.154 37.4864 267.534 37.774 265.705 37.774Z" fill="#FAFBFF"/>
<path d="M287.936 37.7743C285.637 37.7743 283.859 37.1862 282.604 36.0101C281.35 34.8078 280.722 33.0436 280.722 30.7175V11.9385H285.623V30.5998C285.623 31.593 285.872 32.364 286.368 32.9129C286.891 33.4618 287.61 33.7362 288.524 33.7362C289.622 33.7362 290.537 33.4486 291.268 32.8737L292.641 36.3629C292.066 36.8334 291.361 37.1862 290.524 37.4214C289.688 37.6567 288.825 37.7743 287.936 37.7743ZM277.272 20.6419V16.7214H291.229V20.6419H277.272Z" fill="#FAFBFF"/>
<path d="M295.862 16.0098V13.4152H297.177C297.283 13.4152 297.397 13.4457 297.522 13.5066C297.646 13.5652 297.752 13.6566 297.838 13.7809C297.927 13.9028 297.972 14.0575 297.972 14.245C297.972 14.4348 297.926 14.5965 297.834 14.7301C297.743 14.8613 297.632 14.961 297.5 15.0289C297.372 15.0969 297.25 15.1309 297.135 15.1309H296.186V14.7089H296.959C297.037 14.7089 297.119 14.6703 297.209 14.5929C297.3 14.5156 297.346 14.3997 297.346 14.245C297.346 14.0856 297.3 13.9777 297.209 13.9214C297.119 13.8653 297.041 13.8371 296.974 13.8371H296.432V16.0098H295.862ZM297.43 14.7863L298.077 16.0098H297.452L296.819 14.7863H297.43ZM296.847 17.5566C296.458 17.5566 296.093 17.4839 295.753 17.3386C295.413 17.1933 295.115 16.9918 294.857 16.7339C294.599 16.4761 294.397 16.1773 294.252 15.8375C294.107 15.4976 294.034 15.1332 294.034 14.7441C294.034 14.3551 294.107 13.9906 294.252 13.6508C294.397 13.311 294.599 13.0122 294.857 12.7543C295.115 12.4965 295.413 12.295 295.753 12.1497C296.093 12.0043 296.458 11.9316 296.847 11.9316C297.236 11.9316 297.6 12.0043 297.94 12.1497C298.28 12.295 298.579 12.4965 298.837 12.7543C299.094 13.0122 299.296 13.311 299.441 13.6508C299.587 13.9906 299.659 14.3551 299.659 14.7441C299.659 15.1332 299.587 15.4976 299.441 15.8375C299.296 16.1773 299.094 16.4761 298.837 16.7339C298.579 16.9918 298.28 17.1933 297.94 17.3386C297.6 17.4839 297.236 17.5566 296.847 17.5566ZM296.847 16.8816C297.24 16.8816 297.599 16.7855 297.922 16.5933C298.246 16.4011 298.503 16.1433 298.696 15.8199C298.888 15.4964 298.984 15.1379 298.984 14.7441C298.984 14.3504 298.888 13.9918 298.696 13.6683C298.503 13.3449 298.246 13.0871 297.922 12.8949C297.599 12.7027 297.24 12.6066 296.847 12.6066C296.453 12.6066 296.094 12.7027 295.771 12.8949C295.447 13.0871 295.19 13.3449 294.997 13.6683C294.805 13.9918 294.709 14.3504 294.709 14.7441C294.709 15.1379 294.805 15.4964 294.997 15.8199C295.19 16.1433 295.447 16.4011 295.771 16.5933C296.094 16.7855 296.453 16.8816 296.847 16.8816Z" fill="#FAFBFF"/>
</g>
<defs>
<clipPath id="clip0_602_1254">
<rect width="300" height="47.7273" fill="white"/>
</clipPath>
</defs>
</svg>
