<svg width="210" height="45" viewBox="0 0 210 45" fill="none" xmlns="http://www.w3.org/2000/svg">
<path d="M58.6621 38.8149H0.619629V44.0004H58.6621V38.8149Z" fill="#FAFBFF"/>
<path d="M37.5252 10.6099L41.4412 20.3993L48.3658 16.7676L42.3677 3.51807H33.6474L21.4028 26.3187C21.4028 26.3187 27.4296 26.1376 31.2883 23.2303C32.2434 22.6584 35.0133 15.4522 37.5252 10.6099Z" fill="#FAFBFF"/>
<path d="M48.3656 16.7671L41.441 20.3988C35.5193 23.4205 29.8936 26.118 26.8659 26.9378C18.8716 29.235 9.13891 30.6076 5.64318 27.5193C2.36713 24.5929 9.95076 12.411 24.3157 9.69432C25.5187 9.38562 26.7627 9.26662 28.0025 9.34163C28.0025 9.34163 27.0474 5.16659 26.2546 4.29918C25.8452 3.73164 25.2767 3.2976 24.6207 3.05168C23.9647 2.80575 23.2505 2.7589 22.5679 2.91703C19.4637 3.08861 6.23536 6.60593 1.02041 17.5964C-1.84494 23.8399 1.97553 30.1501 4.48749 31.9803C5.65273 32.8286 13.16 39.5487 30.524 32.7524C41.889 28.1541 52.7673 22.4384 62.998 15.69V8.72205C62.998 8.72205 56.2071 12.573 48.3656 16.7671Z" fill="#FAFBFF"/>
<path d="M43.915 26.7659C44.555 28.2625 46.3983 32.6377 46.8664 33.8959C47.0623 34.3006 47.367 34.6432 47.7463 34.8855C48.1257 35.1278 48.565 35.2604 49.0154 35.2685H57.0002L51.0593 22.9722C48.8339 24.1827 46.427 25.4696 43.915 26.7659Z" fill="#FAFBFF"/>
<path d="M63.0173 5.99567C63.0173 5.99567 53.8386 11.2478 51.6992 12.0199C49.7316 12.792 48.9962 11.7721 48.7574 11.4099C48.1467 10.1829 47.6388 8.9076 47.2388 7.59705C47.8182 7.6591 48.4043 7.59736 48.958 7.41595C50.362 7.02513 62.96 -0.00952237 63.0173 9.67818e-06V6.0052V5.99567Z" fill="#FAFBFF"/>
<path d="M83.4278 4.00978C85.8142 4.00663 88.1429 4.74251 90.0925 6.11593L88.5986 8.05561C87.1844 6.9334 85.4304 6.32353 83.6236 6.32582C80.0991 6.32582 77.3432 8.49711 77.3432 11.7179C77.3432 14.9386 80.0991 17.1099 83.6236 17.1099C85.5261 17.1024 87.3724 16.4661 88.8742 15.3005L90.3681 17.2402C88.3306 18.6531 85.9089 19.4107 83.4278 19.4115C78.5834 19.4115 74 16.5526 74 11.6744C74 6.79627 78.5834 4.00978 83.4278 4.00978Z" fill="#FAFBFF"/>
<path d="M93.5806 4.26318H101.674C105.431 4.26318 108.484 5.77585 108.484 9.06174C108.484 11.6166 106.605 12.9628 104.06 13.5346L108.948 19.18H105.184L100.738 13.9761H96.7425V19.18H93.5806V4.26318ZM101.413 11.66C103.676 11.66 105.126 10.7192 105.126 9.10516C105.126 7.49117 103.734 6.6516 101.391 6.6516H96.757V11.66H101.413Z" fill="#FAFBFF"/>
<path d="M112.001 14.8806V4.26297H125.541V6.65139H115.206V10.2702H124.692V12.5935H115.206V14.8951C115.206 16.1978 115.823 16.813 117.085 16.813H125.838V19.2014H116.316C113.582 19.1797 112.001 17.5875 112.001 14.8806ZM122.314 0L119.833 2.62002H117.099L118.963 0H122.314Z" fill="#FAFBFF"/>
<path d="M129.66 4.26318H136.412C142.214 4.26318 146.021 7.24509 146.021 11.7252C146.021 16.2053 142.17 19.18 136.412 19.18H129.66V4.26318ZM136.622 16.7988C140.248 16.7988 142.685 14.7722 142.685 11.7324C142.685 8.69262 140.248 6.66608 136.622 6.66608H132.866V16.7988H136.622Z" fill="#FAFBFF"/>
<path d="M149.422 4.26318H152.628V19.18H149.422V4.26318Z" fill="#FAFBFF"/>
<path d="M155.797 6.6516V4.26318H170.49V6.6516H164.746V19.18H161.541V6.6516H155.797Z" fill="#FAFBFF"/>
<path d="M87.3077 40.5731H79.062L77.2707 44.1919H74L81.7526 29.2534H85.0233L92.7758 44.1702H89.099L87.3077 40.5731ZM86.1329 38.2498L83.1885 32.3222L80.2441 38.2498H86.1329Z" fill="#FAFBFF"/>
<path d="M103.132 29C105.519 28.9969 107.847 29.7327 109.797 31.1062L108.303 33.0458C106.889 31.9236 105.135 31.3138 103.328 31.3161C99.8033 31.3161 97.0475 33.4873 97.0475 36.6647C97.0475 39.842 99.506 42.1001 103.219 42.1001C104.709 42.1263 106.176 41.727 107.447 40.9493V38.0977H102.944V35.8468H110.653V42.1146C108.443 43.6683 105.799 44.4887 103.096 44.4596C97.4609 44.4596 93.7188 41.1375 93.7188 36.7226C93.7115 31.8082 98.2804 29 103.132 29Z" fill="#FAFBFF"/>
<path d="M114.685 29.2534H122.778C126.535 29.2534 129.588 30.7661 129.588 34.052C129.588 36.6069 127.709 37.9531 125.164 38.5248L130.052 44.1702H126.317L121.871 38.9663H117.89V44.1702H114.685V29.2534ZM122.546 36.6503C124.809 36.6503 126.259 35.7094 126.259 34.0954C126.259 32.4814 124.874 31.6418 122.524 31.6418H117.89V36.6503H122.546Z" fill="#FAFBFF"/>
<path d="M133.664 29.2534H136.869V44.1702H133.664V29.2534Z" fill="#FAFBFF"/>
<path d="M149.894 29C152.275 28.9998 154.599 29.7356 156.544 31.1062L155.094 33.0458C153.68 31.9236 151.926 31.3138 150.119 31.316C146.594 31.316 143.838 33.4873 143.838 36.7081C143.838 39.9288 146.594 42.1001 150.119 42.1001C152.021 42.0926 153.868 41.4563 155.369 40.2907L156.863 42.2304C154.826 43.6433 152.404 44.401 149.923 44.4017C145.078 44.4017 140.495 41.5428 140.495 36.6647C140.495 31.7865 145.049 29 149.894 29Z" fill="#FAFBFF"/>
<path d="M158.415 36.7153C158.415 32.4958 162.346 29 167.843 29C173.34 29 177.271 32.4958 177.271 36.7153C177.271 40.9349 173.34 44.4306 167.843 44.4306C162.346 44.4306 158.415 40.9131 158.415 36.7153ZM161.744 36.7153C161.744 39.7189 164.246 42.1074 167.872 42.1074C171.498 42.1074 174 39.7189 174 36.7153C174 33.7117 171.498 31.3233 167.872 31.3233C164.246 31.3233 161.751 33.6755 161.751 36.7153H161.744Z" fill="#FAFBFF"/>
<path d="M180.73 29.2534H183.935V41.789H193.436V44.1774H180.73V29.2534Z" fill="#FAFBFF"/>
<path d="M195.873 39.871V29.2534H209.412V31.6418H199.078V35.2607H208.564V37.5839H199.078V39.8855C199.078 41.1883 199.694 41.8035 200.956 41.8035H209.71V44.1919H200.188C197.454 44.1702 195.873 42.5779 195.873 39.871Z" fill="#FAFBFF"/>
</svg>
