<svg width="142" height="36" viewBox="0 0 142 36" fill="none" xmlns="http://www.w3.org/2000/svg">
<path fill-rule="evenodd" clip-rule="evenodd" d="M0.135742 0V36H35.8575V0H0.135742ZM2.64561 5.38206V2.39203H11.7512L14.1443 17.2226H16.5374L14.1443 2.39203H21.4404L19.164 17.2226H21.4404L23.8919 2.39203L33.1142 2.15282V5.38206H29.6704L23.8919 17.2226H26.6352L31.188 8.19269H33.1142V22.2458H2.64561V8.19269H4.86363L9.29967 17.2226H11.9846L6.08938 5.38206H2.64561ZM2.64561 24.8173V27.8073H33.1142V24.8173H2.64561ZM2.64561 33.4884V30.4983H33.1142V33.4884H2.64561Z" fill="#485069"/>
<path d="M45.6359 35.5H42.8575V0.5H45.6359V35.5Z" fill="#485069"/>
<path d="M66.0473 20L76.8134 35.5H73.3901L62.6735 20H55.1323V35.5H52.3539V0.5H65.7992C68.776 0.5 71.2236 1.43333 73.142 3.3C75.0935 5.16667 76.0692 7.48334 76.0692 10.25C76.0692 12.9833 75.1266 15.2833 73.2412 17.15C71.3559 19.0167 68.9579 19.9667 66.0473 20ZM65.7992 3.1H55.1323V17.4H65.7992C67.9491 17.4 69.7187 16.7167 71.1079 15.35C72.5301 13.95 73.2412 12.2333 73.2412 10.2C73.2412 8.16667 72.5301 6.48333 71.1079 5.15C69.7187 3.78333 67.9491 3.1 65.7992 3.1Z" fill="#485069"/>
<path d="M80.8255 26.6L83.6535 26C83.9512 28.3333 84.96 30.15 86.68 31.45C88.433 32.75 90.7152 33.4 93.5266 33.4C96.2058 33.4 98.3888 32.7667 100.076 31.5C101.763 30.2333 102.606 28.6167 102.606 26.65C102.606 25.2167 102.226 24 101.465 23C100.704 22 99.7118 21.2333 98.488 20.7C97.2642 20.1667 95.9081 19.7 94.4197 19.3C92.9644 18.8667 91.4925 18.4333 90.0041 18C88.5157 17.5333 87.1596 16.9833 85.9358 16.35C84.712 15.6833 83.7197 14.75 82.9589 13.55C82.1982 12.3167 81.8178 10.8333 81.8178 9.1C81.8178 6.5 82.8762 4.33333 84.9931 2.6C87.1099 0.866666 89.7891 0 93.0305 0C96.2719 0 98.9676 0.883334 101.118 2.65C103.267 4.38333 104.557 6.63334 104.987 9.4L102.159 10C101.829 7.8 100.836 6.01667 99.1826 4.65C97.5619 3.25 95.4946 2.55 92.9809 2.55C90.5664 2.55 88.5653 3.16667 86.9776 4.4C85.4231 5.6 84.6458 7.13333 84.6458 9C84.6458 10.3667 85.0262 11.5333 85.7869 12.5C86.5477 13.4333 87.5399 14.15 88.7637 14.65C89.9875 15.15 91.3271 15.6 92.7824 16C94.2708 16.3667 95.7592 16.8 97.2477 17.3C98.7361 17.7667 100.092 18.35 101.316 19.05C102.54 19.7167 103.532 20.7 104.293 22C105.054 23.2667 105.434 24.8167 105.434 26.65C105.434 29.3833 104.293 31.6333 102.011 33.4C99.7283 35.1333 96.8838 36 93.477 36C90.0041 36 87.1265 35.1667 84.8443 33.5C82.562 31.8 81.2225 29.5 80.8255 26.6Z" fill="#485069"/>
<path d="M141.652 35.5H138.675L134.359 25.6H115.258L110.941 35.5H108.014L123.394 0.5H126.272L141.652 35.5ZM124.833 3.85L116.399 23H133.218L124.833 3.85Z" fill="#485069"/>
</svg>
