<svg width="30" height="30" viewBox="0 0 30 30" fill="none" xmlns="http://www.w3.org/2000/svg">
<path fill-rule="evenodd" clip-rule="evenodd" d="M25.7969 2.375H4.27903C3.25005 2.375 2.375 3.18891 2.375 4.19258V25.8074C2.375 26.8111 2.94853 27.625 3.97751 27.625H25.4954C26.5264 27.625 27.625 26.8111 27.625 25.8074V4.19258C27.625 3.19101 26.8259 2.375 25.7969 2.375ZM11.9942 11.9943H15.3932V13.7275H15.4312C15.9499 12.7934 17.4807 11.8445 19.3721 11.8445C23.0051 11.8445 24.0173 13.7739 24.0173 17.3458V24.0194H20.4095V18.0036C20.4095 16.4054 19.7706 15.0011 18.2778 15.0011C16.4644 15.0011 15.5999 16.2282 15.5999 18.244V24.0194H11.9921V11.9943H11.9942ZM5.98274 24.0194H9.59049V11.9964H5.98274V24.0194ZM10.0396 7.78767C10.0396 9.03383 9.03172 10.0417 7.78556 10.0417C6.53941 10.0417 5.53151 9.03383 5.53151 7.78767C5.53151 6.54151 6.53941 5.53362 7.78556 5.53362C9.03172 5.53362 10.0396 6.54151 10.0396 7.78767Z" fill="#485069"/>
</svg>
