<svg width="30" height="30" viewBox="0 0 30 30" fill="none" xmlns="http://www.w3.org/2000/svg">
<path d="M3.5574 7.85863C3.57579 7.67704 3.55114 7.49367 3.48545 7.32338C3.41976 7.15309 3.31488 7.00067 3.17931 6.87847L0.377863 3.50382V3H9.07557L15.7981 17.7437L21.7088 3H30V3.50405L27.605 5.80031C27.5037 5.87753 27.4254 5.98093 27.3785 6.09937C27.3316 6.21781 27.3179 6.3468 27.3389 6.47244V23.3444C27.3179 23.47 27.3316 23.599 27.3785 23.7174C27.4254 23.8359 27.5037 23.9393 27.605 24.0165L29.9439 26.3127V26.8168H18.1793V26.3127L20.6022 23.9604C20.8404 23.7222 20.8404 23.6524 20.8404 23.2885V9.65084L14.1037 26.7607H13.1931L5.35008 9.65084V21.1182C5.31782 21.3561 5.34016 21.5983 5.41539 21.8263C5.49062 22.0543 5.61677 22.2622 5.78427 22.4343L8.93542 26.2566V26.7607H0V26.2569L3.15114 22.4343C3.31731 22.2621 3.44065 22.0533 3.51123 21.8247C3.5818 21.596 3.59762 21.354 3.5574 21.1182V7.85863Z" fill="#485069"/>
</svg>
