<svg width="346" height="91" viewBox="0 0 346 91" fill="none" xmlns="http://www.w3.org/2000/svg">
<path d="M337.175 34.9219C336.024 36.201 334.489 36.9685 332.571 36.9685C330.652 36.9685 329.117 36.201 327.965 34.9219C326.814 33.6427 326.431 31.4682 326.431 28.9099C326.431 26.2237 326.942 24.305 327.965 23.0259C329.117 21.7467 330.652 20.9791 332.571 20.9791C334.489 20.9791 336.024 21.7467 337.175 23.0259C338.327 24.305 338.71 26.4796 338.71 28.9099C338.71 31.3403 338.327 33.3869 337.175 34.9219ZM342.548 19.0604C340.501 16.3742 337.048 14.8393 332.571 14.8393C328.221 14.8393 324.64 16.1184 322.593 19.0604C320.547 21.7466 319.267 25.0725 319.267 28.782C319.267 32.6195 320.419 35.9452 322.593 38.5035C324.64 41.1897 328.094 42.5967 332.571 42.5967C336.92 42.5967 340.501 41.3177 342.548 38.5035C344.594 35.8173 345.874 32.4916 345.874 28.782C346.001 25.2004 344.85 21.8745 342.548 19.0604ZM309.29 34.9219C308.395 36.201 306.86 36.9685 304.941 36.9685C303.022 36.9685 301.487 36.201 300.72 34.9219C299.824 33.3869 299.441 31.4682 299.441 28.9099C299.441 26.6075 299.824 24.8166 300.72 23.4095C301.615 21.8746 303.022 21.1072 305.069 21.1072C306.348 21.1072 307.499 21.4908 308.523 22.2583C310.057 23.5374 310.953 26.0958 310.953 29.4216C310.569 31.7241 310.313 33.6427 309.29 34.9219ZM317.221 7.03654C317.221 7.03654 310.313 6.26899 310.313 11.7693V19.0604C309.546 17.9092 308.65 17.0139 307.243 16.1185C306.092 15.351 304.557 15.223 303.022 15.223C299.568 15.223 296.882 16.5021 294.708 19.0604C292.661 21.4908 291.638 25.2003 291.638 29.8053C291.638 33.6427 292.533 36.9686 294.708 39.1431C296.754 41.5735 300.848 42.5967 304.429 42.5967C317.093 42.5967 316.837 31.8519 316.837 31.8519L317.221 7.03654ZM283.195 31.724C283.195 34.0265 282.428 35.5615 281.277 36.4569C279.997 37.2244 278.59 37.7361 277.183 37.7361C276.288 37.7361 275.52 37.608 274.881 36.9685C274.241 36.3289 273.986 35.6894 273.986 34.5382C273.986 33.2591 274.497 32.2357 275.52 31.5961C276.032 31.2124 277.183 30.8287 278.59 30.7008L280.126 30.317C280.893 30.1891 281.405 29.9331 282.044 29.9331C282.428 29.8052 282.94 29.5495 283.323 29.4216L283.195 31.724ZM286.649 16.758C284.347 15.6068 281.916 15.0951 278.974 15.0951C274.625 15.0951 271.427 16.2464 269.636 18.5489C268.485 20.0838 267.974 21.8745 267.718 24.0491H274.241C274.369 23.1537 274.753 22.3863 275.137 21.7467C275.904 20.9792 277.055 20.5955 278.59 20.5955C280.125 20.5955 281.021 20.7234 281.916 21.1072C282.684 21.4909 283.067 22.2583 283.067 23.4095C283.067 24.3049 282.556 24.9445 281.533 25.3283C281.021 25.4562 279.998 25.712 278.846 25.8399L276.544 25.9678C273.858 26.3516 271.939 26.8633 270.532 27.6308C268.102 28.9099 266.822 31.4683 266.822 34.5382C266.822 36.9686 267.59 38.8873 269.125 40.2944C270.66 41.5735 272.579 42.2131 275.009 42.341C289.975 42.8526 289.847 34.4103 289.847 32.7474V23.0259C289.975 20.2118 288.952 17.9093 286.649 16.758ZM252.752 20.9791C254.415 20.9791 255.694 21.4909 256.589 22.5142C257.101 23.2817 257.484 24.1771 257.484 25.2004H264.776C264.392 21.4908 263.113 18.8046 260.938 17.5255C258.892 15.9905 255.95 15.4789 252.496 15.4789C248.403 15.4789 245.205 16.6301 242.902 19.1884C240.6 21.7467 239.449 25.2004 239.449 29.5495C239.449 33.6428 240.344 36.7127 242.519 39.1431C244.565 41.5735 247.891 42.8527 252.24 42.8527C256.589 42.8527 259.915 41.3177 262.217 38.5035C263.497 36.5848 264.264 34.666 264.52 32.4915H257.229C257.101 33.7706 256.717 34.922 255.95 35.8174C255.182 36.5848 254.031 37.0965 252.24 37.0965C249.938 37.0965 248.147 35.9451 247.507 33.7706C247.124 32.6194 246.74 31.0844 246.74 29.1657C246.74 27.247 246.868 25.4562 247.507 24.4329C248.658 22.1304 250.193 20.9791 252.752 20.9791ZM237.53 15.223C222.308 15.223 223.331 28.654 223.331 28.654V42.2131H230.239V29.5495C230.239 27.5029 230.367 25.84 231.006 24.9446C231.902 23.2817 233.692 22.2583 236.506 22.2583H237.274C237.658 22.2583 238.041 22.2584 238.425 22.3863V15.4789H237.914C237.786 15.2231 237.786 15.223 237.53 15.223ZM203.249 22.2583C204.144 21.3629 205.551 20.7233 207.342 20.7233C208.877 20.7233 210.284 21.1071 211.435 22.0025C212.586 22.8979 213.098 24.3049 213.098 26.0957H201.33C201.714 24.5607 202.225 23.2816 203.249 22.2583ZM212.459 34.9219C212.331 35.3056 211.947 35.6894 211.563 35.8174C210.668 36.5848 209.261 36.7127 207.726 36.7127C206.191 36.7127 205.04 36.5848 204.016 35.8174C202.353 34.922 201.33 32.8752 201.33 30.4448H220.261C220.261 28.1424 220.261 26.3516 220.133 25.3283C219.75 23.2816 219.238 21.4909 218.087 19.9559C216.936 18.293 215.401 16.8859 213.738 16.1185C212.075 15.351 209.9 14.9672 207.598 14.9672C203.76 14.9672 200.69 16.1185 198.388 18.6767C196.085 21.1071 194.678 24.5608 194.678 29.0378C194.678 33.7707 195.957 37.3523 198.772 39.3989C201.458 41.4455 204.528 42.7246 207.982 42.7246C212.203 42.7246 215.529 41.4455 217.703 38.8872C218.982 37.608 219.75 36.201 220.006 34.794L212.459 34.9219ZM191.736 42.0851H185.341V26.3516C185.341 24.8167 184.957 21.6187 180.736 21.6187C178.049 21.6187 176.003 23.5375 176.003 26.3516V42.0851H169.607V26.3516C169.607 24.8167 169.223 21.6187 165.002 21.6187C162.316 21.6187 160.397 23.5375 160.397 26.3516V42.0851H154.001V26.4795C154.001 19.9559 158.223 14.9672 164.874 14.9672C168.2 14.9672 170.886 16.2464 172.805 18.6767C174.724 16.3743 177.41 14.9672 180.736 14.9672C187.643 14.9672 191.608 19.7 191.608 26.4795L191.736 42.0851Z" fill="#FAFBFF"/>
<path d="M160.78 49H158.989C156.175 49 154 52.3258 154 53.3491V84.8161H160.78V49Z" fill="#FAFBFF"/>
<path d="M224.353 57.1866C215.271 57.1866 211.05 62.0473 210.794 70.7455V84.6882H217.702V70.6176C217.702 66.6523 219.365 64.2219 223.202 64.2219H226.4V57.1866H224.353Z" fill="#FAFBFF"/>
<path d="M174.85 49H168.071V55.14H174.85V49Z" fill="#FAFBFF"/>
<path d="M174.85 58.21H168.071V84.6882H174.85V58.21Z" fill="#FAFBFF"/>
<path fill-rule="evenodd" clip-rule="evenodd" d="M196.084 56.9308C192.758 56.9308 190.2 58.3378 188.409 61.1519V49H187.642C184.316 49 182.525 50.7909 181.63 52.3259V72.6642C181.63 80.7229 185.851 84.8161 194.293 84.8161C202.736 84.6882 206.829 80.0834 206.829 71.1293C206.829 61.7915 203.247 57.1866 196.084 56.9308ZM188.409 70.7455C188.281 76.1179 190.2 78.9321 194.037 78.9321C197.875 78.9321 199.921 76.2458 199.921 70.7455C199.666 65.501 197.875 62.9427 194.165 62.9427C190.456 62.9427 188.665 65.501 188.409 70.7455Z" fill="#FAFBFF"/>
<path fill-rule="evenodd" clip-rule="evenodd" d="M237.145 77.7808C238.296 78.8041 239.831 79.3159 241.878 79.3159C243.285 79.3159 244.564 78.9321 245.587 78.1646C246.61 77.3971 247.25 76.6296 247.506 75.8621H253.902C252.878 79.06 251.343 81.2346 249.169 82.6416C246.994 84.0487 244.564 84.6882 241.494 84.6882C239.447 84.6882 237.528 84.3046 235.865 83.665C234.203 83.0254 232.796 82.002 231.644 80.8508C230.493 79.5717 229.598 78.1646 228.958 76.5017C228.319 74.8388 228.063 72.9202 228.063 70.8736C228.063 68.9548 228.446 67.036 229.086 65.3731C229.726 63.7102 230.621 62.1753 231.772 61.024C232.923 59.7449 234.331 58.8496 235.993 58.0821C237.656 57.3146 239.447 57.0587 241.494 57.0587C243.668 57.0587 245.715 57.4424 247.378 58.3378C249.041 59.2332 250.448 60.3844 251.471 61.7915C252.494 63.1985 253.262 64.8615 253.773 66.7802C254.285 68.571 254.413 70.6176 254.285 72.6642H235.226C235.482 75.0946 236.121 76.7575 237.145 77.7808ZM241.366 62.5591C243.157 62.5591 244.436 63.0707 245.331 63.9661C246.227 64.8615 246.866 66.2685 246.994 68.1872H235.226C235.272 68.0009 235.302 67.7976 235.333 67.5835C235.388 67.2098 235.447 66.8032 235.61 66.3965C235.865 65.757 236.121 65.2453 236.633 64.6057C237.017 64.094 237.656 63.5824 238.424 63.1987C239.191 62.8149 240.215 62.5591 241.366 62.5591Z" fill="#FAFBFF"/>
<path fill-rule="evenodd" clip-rule="evenodd" d="M65.8298 0C102.202 0 131.66 19.3617 131.66 43.0107V45.5001C131.66 70.6703 106.075 91 65.8298 91C25.7234 91 0 70.6703 0 45.5001V43.0107C0 19.3617 29.4574 0 65.8298 0ZM66.1064 83.3943C100.958 83.3943 129.309 65.2773 129.309 43.0113C129.309 20.7453 100.958 2.62833 66.1064 2.62833C31.2553 2.62833 2.90428 20.7453 2.90428 43.0113C2.90428 65.2773 31.2553 83.3943 66.1064 83.3943Z" fill="#FAFBFF"/>
<path d="M45.2767 30.0745C45.2767 30.0745 44.5851 30.7658 45 31.319C45.9681 32.5637 49.0107 33.2552 52.1916 32.5637C53.9895 32.1489 56.4788 30.2127 58.6915 28.4148C58.9179 28.2388 59.1442 28.0616 59.3705 27.8845C61.6335 26.1129 63.8966 24.3413 66.1597 23.7126C68.7873 22.8829 70.4469 23.2978 71.5533 23.5744C72.798 23.9893 74.181 24.819 76.532 26.4786C80.2328 29.2243 93.7233 40.9355 99.3018 45.7782C100.186 46.5456 100.871 47.1406 101.287 47.5C103.635 46.3951 114.397 41.8419 129.027 38.5238C129.046 38.5194 129.066 38.515 129.085 38.5106C127.841 30.7659 123.138 23.5744 115.947 17.7659C115.912 17.7806 115.877 17.7952 115.841 17.8099C105.902 21.9304 93.6384 24.1071 81.649 18.3192C81.649 18.3192 75.1491 15.2765 68.6491 15.4148C59.1065 15.6914 55.0959 19.7021 50.6704 24.1276L45.2767 30.0745Z" fill="#FAFBFF"/>
<path d="M61.2661 59.7465C60.3326 59.7465 59.3213 60.1355 58.8156 60.33C58.6471 60.3948 58.5347 60.438 58.5001 60.438C58.3618 60.438 58.5001 59.8849 58.6384 59.6083C58.7767 59.3317 60.4363 54.353 56.4257 52.5551C53.3831 51.1721 51.4469 52.6934 50.8937 53.3849C50.7554 53.5232 50.6172 53.5232 50.6172 53.3849C50.6172 52.5551 50.2023 50.0657 47.4363 49.2359C43.5639 47.9912 41.2129 50.7573 40.5214 51.7253C40.2448 49.5126 38.447 47.8529 36.0959 47.8529C33.6066 47.8529 31.6703 49.789 31.6703 52.2784C31.6703 54.7678 33.6066 56.704 36.0959 56.704C37.3406 56.704 38.3086 56.2891 39.1384 55.4593V55.5976C39.0001 56.704 38.5852 60.7147 42.7341 62.236C44.3937 62.9275 45.7768 62.3743 47.0215 61.5445C47.4364 61.2679 47.4363 61.4061 47.4363 61.6827C47.298 62.6508 47.4364 64.8635 50.6172 66.1082C52.9683 67.0763 54.3512 66.1082 55.1809 65.2785C55.5958 64.8636 55.7342 65.002 55.7342 65.5552C55.8725 68.4594 58.3618 70.8104 61.2661 70.8104C64.3087 70.8104 66.798 68.321 66.798 65.2785C66.798 62.2359 64.3087 59.7465 61.2661 59.7465Z" fill="#FAFBFF"/>
<path fill-rule="evenodd" clip-rule="evenodd" d="M101.234 47.298C100.41 46.584 99.4434 45.7439 98.3766 44.817L98.3755 44.8161C91.3832 38.741 80.0965 28.9347 76.617 26.415C74.4042 24.7554 72.883 23.7874 71.5 23.5108C71.4144 23.4894 71.3221 23.4647 71.2233 23.4382C70.6833 23.2935 69.9457 23.0958 69.0106 23.0958C68.0425 23.0958 66.9362 23.2342 65.8298 23.649C63.3405 24.4788 60.8511 26.415 58.3617 28.3512L58.2234 28.4895C56.0107 30.2874 53.6596 32.0853 51.8618 32.5002C51.7567 32.5177 51.6538 32.5352 51.5525 32.5524C50.8546 32.6713 50.2353 32.7767 49.5106 32.7767C47.5744 32.7767 45.7766 32.2235 45.0851 31.3937C44.9468 31.2554 45.0851 30.9788 45.3616 30.7022L50.8936 24.7555C55.1808 20.4683 59.1915 16.4575 68.5958 16.1809H69.0106C74.4087 16.1809 79.8069 18.4504 81.0977 18.9931C81.1959 19.0343 81.2703 19.0656 81.3191 19.0851C86.8511 21.7128 92.3829 23.0958 98.0532 23.0958C104 23.0958 110.085 21.5746 116.447 18.6704C116.195 18.4689 116.116 18.0346 115.841 17.8099C105.902 21.9304 93.6384 24.1071 81.649 18.3192C81.649 18.3192 75.1491 15.2765 68.6491 15.4148C59.1065 15.6914 55.0959 19.7021 50.6704 24.1276L45.2767 30.0745C45.2767 30.0745 44.5851 30.7658 45 31.319C45.9681 32.5637 49.0107 33.2552 52.1916 32.5637C53.9895 32.1489 56.4788 30.2127 58.6915 28.4148C58.9179 28.2388 59.1442 28.0616 59.3705 27.8845C61.6335 26.1129 63.8966 24.3413 66.1597 23.7126C68.7873 22.8829 70.4469 23.2978 71.5533 23.5744C72.798 23.9893 74.181 24.819 76.532 26.4786C80.2328 29.2243 93.7233 40.9355 99.3018 45.7782C100.186 46.5456 100.871 47.1406 101.287 47.5C103.635 46.3951 114.397 41.8419 129.027 38.5238C129.002 38.4279 128.784 38.5453 128.755 38.4469C114.511 41.4894 103.862 46.0533 101.234 47.298ZM79.2407 67.7661H79.9362C80.4893 67.7661 81.8723 67.6278 82.8404 66.798L83.6703 65.9682C84.7767 64.7235 83.5319 63.2022 83.5319 63.2022L77.5852 56.564C77.5852 56.564 77.3085 56.4257 77.1702 56.1491C76.7553 55.4576 76.8936 55.0427 77.0319 54.9044C77.1702 54.6278 77.4469 54.6278 77.5852 54.6278C77.8963 54.6278 78.2075 54.8612 78.5187 55.0946C78.6224 55.1724 78.7262 55.2502 78.8299 55.3193C80.4889 56.5636 82.7005 58.7752 84.7744 60.849L84.7752 60.8498L84.7766 60.8512L86.0213 61.9575C86.0554 61.9746 86.098 61.998 86.1487 62.0259L86.1497 62.0264C86.5104 62.2247 87.2822 62.649 88.3723 62.649C89.3404 62.649 90.3086 62.3725 91.2767 61.681C92.6597 60.8512 93.2127 59.7448 93.2127 58.3618C93.0744 57.1171 92.1065 56.1491 92.1065 56.1491L83.9468 47.9895C83.3936 47.5746 82.9787 46.8831 83.3936 46.33C83.5319 46.1917 83.6702 46.0533 83.9468 46.0533C84.3617 46.0533 84.7767 46.3299 85.1916 46.7447C87.6809 48.9575 94.7341 55.3193 94.7341 55.3193C94.7341 55.3193 95.7022 56.0108 97.0851 56.0108C97.9149 56.0108 98.8831 55.7343 99.7128 55.1811C100.681 54.4896 101.372 53.5215 101.372 52.5534C101.372 50.6172 100.128 49.5107 100.128 49.5107C99.9893 49.3724 79.6596 31.6704 75.0957 28.2129C72.4681 26.2768 71.0851 25.7235 69.5638 25.5853H69.0106C68.3191 25.5853 67.6276 25.7235 66.9361 25.8618C64.7233 26.5533 61.8191 28.6278 59.7447 30.2874C57.2553 32.3619 54.7659 34.298 52.4148 34.8512C51.7233 34.9895 50.8936 35.1278 50.0638 35.1278C47.851 35.1278 45.4999 34.4362 44.1169 33.6064C43.4254 33.0532 42.8723 32.5001 42.5957 31.9469C42.0425 30.5639 43.0105 29.3193 43.4254 28.9044L48.9574 22.8193L50.0638 21.7128C49.4415 21.8511 48.8192 22.024 48.1968 22.1969C47.5745 22.3698 46.9522 22.5427 46.3298 22.681L45.9648 22.7786C44.0269 23.2974 42.197 23.7873 40.2447 23.7873C39.742 23.7873 39.2393 23.75 38.756 23.7142C38.3085 23.681 37.8776 23.649 37.4787 23.649C34.4362 23.3724 24.617 20.8831 16.5958 17.5639C17.0107 17.2873 17.391 17.0107 17.7713 16.7341C17.8576 16.6713 17.944 16.6085 18.0308 16.5457L17.8403 16.4586C9.95731 22.4054 4.56375 29.7352 3.04247 37.8948C3.48495 38.0054 4.06013 38.1603 4.63533 38.3151C5.49839 38.5475 6.36151 38.7798 6.77645 38.8628C24.3861 42.7911 30.0548 46.8521 31.3197 47.7969L31.3936 47.8522C31.5685 47.6554 31.7538 47.4724 31.949 47.3038C32.988 46.4061 34.3055 45.916 35.819 45.916C37.7552 45.916 39.5531 46.8841 40.6595 48.4054C41.6276 47.5756 43.149 46.8842 44.9468 46.8842C45.7766 46.8842 46.6063 47.0224 47.5744 47.299C49.6488 47.9905 50.6171 49.3735 51.1702 50.6182C51.8617 50.3416 52.6914 50.0649 53.6595 50.0649C54.6276 50.0649 55.5958 50.3415 56.7022 50.7564C58.1922 51.3773 59.1248 52.3883 59.6752 53.5394C60.3507 54.9523 60.4503 56.5762 60.2979 57.948H60.5833H60.9894C64.1689 57.948 66.8269 59.9471 67.792 62.774C68.0442 63.5129 68.1808 64.3084 68.1808 65.1394C68.1808 66.3841 67.9042 67.4905 67.3511 68.4586L67.4904 68.5285C67.5487 68.5578 67.6104 68.5888 67.6751 68.6212C68.916 69.241 71.3028 70.3705 73.5745 70.1181C74.1671 70.0335 74.6431 69.9229 75.0263 69.7983C75.8951 69.5158 76.2868 69.1613 76.4787 68.8734C76.5063 68.8181 76.5395 68.7628 76.5727 68.7075C76.7055 68.4862 76.8382 68.2649 76.617 68.0437L71.5 62.3735C71.5 62.3735 70.6702 61.5436 70.9468 61.267C71.2008 61.013 71.688 61.3422 72.0872 61.6119C72.1042 61.6234 72.1211 61.6348 72.1379 61.646C72.156 61.6582 72.1738 61.6702 72.1915 61.682C74.8191 63.8948 77.8617 67.0757 77.8617 67.0757C77.8617 67.0757 78.1376 67.4896 79.2407 67.7661ZM61.2659 70.3938C58.5 70.3938 56.2873 68.1809 56.149 65.415C56.149 65.1384 56.1489 64.5852 55.5957 64.5852C55.3933 64.5852 55.265 64.6594 55.1022 64.7533C55.0426 64.7878 54.9784 64.8248 54.9042 64.8619C54.3511 65.4151 53.5212 65.9682 52.4148 65.9682C51.8616 65.9682 51.3085 65.83 50.7553 65.5534C47.851 64.3087 47.7128 62.3725 47.8511 61.5427C47.8511 61.2661 47.8511 61.1278 47.7128 60.9895L47.5744 60.8512H47.4361C47.2978 60.8512 47.1595 60.8512 46.8829 61.1278C46.0531 61.681 45.2234 61.9575 44.3936 61.9575C43.9787 61.9575 43.4255 61.8193 43.0107 61.681C39.1383 60.1597 39.4149 56.564 39.6915 55.4576C39.6915 55.181 39.6915 55.0427 39.5532 54.9044L39.2765 54.6278L39 54.9044C38.1702 55.5959 37.2021 56.0108 36.234 56.0108C34.0212 56.0108 32.2233 54.2129 32.2233 52.0001C32.2233 49.7874 34.0212 47.9895 36.234 47.9895C38.1702 47.9895 39.9681 49.5107 40.2447 51.4469L40.383 52.5534L40.9362 51.5852C40.9362 51.4469 42.5958 48.9576 45.6383 49.0959C46.0967 49.0959 46.5551 49.1908 47.0921 49.302C47.2032 49.325 47.3176 49.3487 47.4361 49.3724C49.7872 50.0639 50.2021 52.2768 50.2021 53.1066C50.2021 53.6598 50.617 53.6596 50.617 53.6596C50.7553 53.6596 51.0318 53.5214 51.0318 53.3831C51.4467 52.9682 52.415 52.1384 53.9362 52.1384C54.6277 52.1384 55.3192 52.2767 56.149 52.6916C59.5611 54.2081 58.4695 58.2651 58.2559 59.0589C58.2358 59.1338 58.2234 59.1796 58.2234 59.1916C58.201 59.2587 58.1796 59.3223 58.1592 59.3825C57.9281 60.0661 57.8421 60.3203 58.2234 60.5746H58.5C58.6383 60.5746 58.9149 60.5746 59.1915 60.4363C59.3354 60.4003 59.4888 60.3549 59.6491 60.3075C60.1046 60.1728 60.6161 60.0215 61.1277 60.0215C63.8936 60.0215 66.2446 62.3725 66.2446 65.1385C66.3829 68.181 64.0319 70.3938 61.2659 70.3938ZM58.5001 60.438C58.5347 60.438 58.6471 60.3948 58.8156 60.33C59.3213 60.1355 60.3326 59.7465 61.2661 59.7465C64.3087 59.7465 66.798 62.2359 66.798 65.2785C66.798 68.321 64.3087 70.8104 61.2661 70.8104C58.3618 70.8104 55.8725 68.4594 55.7342 65.5552C55.7342 65.002 55.5958 64.8636 55.1809 65.2785C54.3512 66.1082 52.9683 67.0763 50.6172 66.1082C47.4364 64.8635 47.298 62.6508 47.4363 61.6827C47.4363 61.4061 47.4364 61.2679 47.0215 61.5445C45.7768 62.3743 44.3937 62.9275 42.7341 62.236C38.5852 60.7147 39.0001 56.704 39.1384 55.5976V55.4593C38.3086 56.2891 37.3406 56.704 36.0959 56.704C33.6066 56.704 31.6703 54.7678 31.6703 52.2784C31.6703 49.789 33.6066 47.8529 36.0959 47.8529C38.447 47.8529 40.2448 49.5126 40.5214 51.7253C41.2129 50.7573 43.5639 47.9912 47.4363 49.2359C50.2023 50.0657 50.6172 52.5551 50.6172 53.3849C50.6172 53.5232 50.7554 53.5232 50.8937 53.3849C51.4469 52.6934 53.3831 51.1721 56.4257 52.5551C60.4363 54.353 58.7767 59.3317 58.6384 59.6083C58.5001 59.8849 58.3618 60.438 58.5001 60.438Z" fill="#FAFBFF"/>
</svg>
