<svg width="300" height="37" viewBox="0 0 300 37" fill="none" xmlns="http://www.w3.org/2000/svg">
<path d="M16.3453 17.7102C17.0547 17.9037 17.9632 18.1018 18.9934 18.1018C24.1935 18.1018 28.0684 15.6933 28.0684 10.7961C28.0684 6.47925 24.1935 4.45291 18.4502 4.45291C16.6988 4.45291 14.6478 4.69352 13.2594 5.03085C13.1938 6.85433 13.0089 9.83368 13.0089 21.3643C13.0089 32.4915 13.1938 32.9279 13.8658 33.4115C14.409 33.7936 16.2235 34.0319 18.5696 34.0319L18.7569 34.1805V35.5628L18.5696 35.7114C15.4907 35.6194 12.5898 35.4755 9.69116 35.4755C6.7832 35.4755 3.87524 35.6194 0.854888 35.7114L0.669922 35.5628V34.1805L0.854888 34.0319C3.1541 34.0319 4.9663 33.7936 5.51418 33.4115C6.17678 32.9279 6.35941 32.4915 6.35941 21.3643V16.5048C6.35941 5.36583 6.17678 4.9365 5.51418 4.45291C4.9663 4.07077 3.1541 3.83015 0.854888 3.83015L0.669922 3.69568V2.29683L0.854888 2.15527C3.87524 2.252 6.7832 2.38882 9.69116 2.38882C13.3203 2.38882 16.9376 2.15527 20.3279 2.15527C29.0424 2.15527 34.9684 3.49988 34.9684 10.0318C34.9684 16.1746 28.7966 20.1116 20.8103 20.1116C18.8693 20.1116 17.4855 19.9135 16.5888 19.7814L15.7974 18.1348L16.3453 17.7102Z" fill="#485069"/>
<path d="M61.8311 2.29721L62.0113 2.15332C65.041 2.25004 67.942 2.3892 70.8546 2.3892C73.7556 2.3892 76.6565 2.25004 79.6839 2.15332L79.8642 2.29721V3.69605L79.6839 3.83052C77.3823 3.83052 75.5654 4.06878 75.0199 4.45329C74.362 4.93688 74.1794 5.36385 74.1794 16.5028V21.3646C74.1794 32.4895 74.362 32.9283 75.0199 33.4118C75.5654 33.794 77.3823 34.0322 79.6839 34.0322L79.8642 34.1761V35.5679L79.6839 35.7118C76.6565 35.6175 73.7556 35.4759 70.8546 35.4759C67.942 35.4759 65.041 35.6175 62.0113 35.7118L61.8311 35.5679V34.1761L62.0113 34.0322C64.3152 34.0322 66.1298 33.794 66.6706 33.4118C67.3356 32.9283 67.5112 32.4895 67.5112 21.3646V16.5028C67.5112 5.36385 67.3356 4.93688 66.6706 4.45329C66.1298 4.06878 64.3152 3.83052 62.0113 3.83052L61.8311 3.69605V2.29721Z" fill="#485069"/>
<path d="M107.31 2.29721L107.49 2.15332C110.515 2.25004 111.971 2.3892 114.631 2.3892C116.511 2.3892 118.628 2.25004 119.726 2.15332C125.352 11.943 133.095 23.9524 135.633 27.9839C141.142 19.3996 146.464 10.839 151.732 2.15332C153.355 2.25004 155.546 2.3892 157.295 2.3892C159.044 2.3892 161.521 2.25004 163.219 2.15332L163.397 2.29721V3.6937L163.219 3.83052C160.917 3.83052 159.107 4.06878 158.564 4.45329C157.878 4.93688 157.712 5.36385 157.712 16.5028V21.3646C157.712 32.4895 157.878 32.9283 158.564 33.4118C159.107 33.794 160.917 34.0322 163.219 34.0322L163.397 34.1761V35.5679L163.219 35.7118C160.201 35.6175 157.295 35.4759 154.38 35.4759C151.486 35.4759 148.578 35.6175 145.56 35.7118L145.364 35.5679V34.1761L145.56 34.0322C147.857 34.0322 149.679 33.794 150.206 33.4118C150.873 32.9283 151.069 32.4895 151.069 21.3646V9.54392H150.934C145.122 18.4348 135.633 33.0745 134.31 36.3322H133.029C131.395 32.4895 119.417 14.4411 116.392 9.54392H116.275V21.3646C116.275 32.4895 116.448 32.9283 117.117 33.4118C117.656 33.794 119.473 34.0322 121.601 34.0322L121.781 34.1761V35.5679L121.601 35.7118C119.351 35.6175 117.057 35.4759 114.821 35.4759C112.397 35.4759 109.911 35.6175 107.49 35.7118L107.31 35.5679V34.1761L107.49 34.0322C109.796 34.0322 111.615 33.794 112.156 33.4118C112.816 32.9283 113.001 32.4895 113.001 21.3646V16.5028C113.001 5.36385 112.816 4.93688 112.156 4.45329C111.615 4.06878 109.796 3.83052 107.49 3.83052L107.31 3.69605V2.29721Z" fill="#485069"/>
<path d="M226.951 31.1977C226.457 32.1107 226.027 33.0236 225.598 33.9365C221.683 35.4297 217.139 36.3332 211.627 36.3332C199.696 36.3332 188.256 30.5773 188.256 19.2543C188.256 8.4857 197.415 1.52441 212.524 1.52441C217.553 1.52441 223.983 2.58595 226.572 3.30543L226.951 3.64511C226.102 5.65494 225.748 9.21697 225.79 10.4177L225.598 10.5569H223.674L223.493 10.4177C223.493 9.21697 223.311 8.01154 223.137 6.81083C221.683 5.41669 217.139 3.8291 211.742 3.8291C200.438 3.8291 195.402 10.939 195.402 17.563C195.402 26.3076 201.768 33.4576 214.783 33.4576C218.345 33.4576 222.831 32.6862 226.212 30.8722L226.951 31.1977Z" fill="#485069"/>
<path d="M276.346 3.8305C267.812 3.8305 261.418 8.96358 261.418 16.9392C261.418 27.3634 268.402 34.0322 277.536 34.0322C287.418 34.0322 292.197 27.505 292.197 19.7322C292.197 7.38308 282.935 3.8305 276.346 3.8305ZM277.367 1.52344C289.579 1.52344 299.329 6.76739 299.329 18.1022C299.329 28.1749 289.64 36.3322 275.843 36.3322C259.336 36.3322 254.27 26.7808 254.27 18.6754C254.27 7.91384 264.368 1.52344 277.367 1.52344Z" fill="#485069"/>
</svg>
