<svg width="300" height="37" viewBox="0 0 300 37" fill="none" xmlns="http://www.w3.org/2000/svg">
<path d="M16.3458 16.8621C17.0552 17.0555 17.9636 17.2537 18.9938 17.2537C24.194 17.2537 28.0689 14.8452 28.0689 9.94799C28.0689 5.6311 24.194 3.60477 18.4506 3.60477C16.6993 3.60477 14.6483 3.84538 13.2599 4.18271C13.1943 6.00618 13.0093 8.98553 13.0093 20.5161C13.0093 31.6433 13.1943 32.0797 13.8663 32.5633C14.4095 32.9455 16.224 33.1837 18.5701 33.1837L18.7574 33.3323V34.7147L18.5701 34.8633C15.4912 34.7713 12.5902 34.6274 9.69164 34.6274C6.78368 34.6274 3.87573 34.7713 0.855376 34.8633L0.67041 34.7147V33.3323L0.855376 33.1837C3.15458 33.1837 4.96679 32.9455 5.51467 32.5633C6.17727 32.0797 6.3599 31.6433 6.3599 20.5161V15.6567C6.3599 4.51769 6.17727 4.08836 5.51467 3.60477C4.96679 3.22262 3.15458 2.982 0.855376 2.982L0.67041 2.84753V1.44869L0.855376 1.30713C3.87573 1.40385 6.78368 1.54068 9.69164 1.54068C13.3207 1.54068 16.9381 1.30713 20.3284 1.30713C29.0429 1.30713 34.9689 2.65174 34.9689 9.18368C34.9689 15.3264 28.7971 19.2635 20.8107 19.2635C18.8698 19.2635 17.486 19.0654 16.5893 18.9333L15.7979 17.2867L16.3458 16.8621Z" fill="#FAFBFF"/>
<path d="M61.832 1.44906L62.0123 1.30518C65.042 1.40189 67.943 1.54105 70.8556 1.54105C73.7565 1.54105 76.6575 1.40189 79.6848 1.30518L79.8651 1.44906V2.84791L79.6848 2.98238C77.3833 2.98238 75.5664 3.22063 75.0209 3.60515C74.3629 4.08873 74.1803 4.51571 74.1803 15.6547V20.5165C74.1803 31.6413 74.3629 32.0801 75.0209 32.5637C75.5664 32.9458 77.3833 33.1841 79.6848 33.1841L79.8651 33.328V34.7198L79.6848 34.8637C76.6575 34.7693 73.7565 34.6278 70.8556 34.6278C67.943 34.6278 65.042 34.7693 62.0123 34.8637L61.832 34.7198V33.328L62.0123 33.1841C64.3162 33.1841 66.1308 32.9458 66.6716 32.5637C67.3366 32.0801 67.5122 31.6413 67.5122 20.5165V15.6547C67.5122 4.51571 67.3366 4.08873 66.6716 3.60515C66.1308 3.22063 64.3162 2.98238 62.0123 2.98238L61.832 2.84791V1.44906Z" fill="#FAFBFF"/>
<path d="M107.31 1.44906L107.49 1.30518C110.515 1.40189 111.972 1.54105 114.631 1.54105C116.512 1.54105 118.628 1.40189 119.726 1.30518C125.353 11.0948 133.095 23.1043 135.633 27.1357C141.143 18.5515 146.465 9.99085 151.733 1.30518C153.355 1.40189 155.547 1.54105 157.296 1.54105C159.045 1.54105 161.522 1.40189 163.219 1.30518L163.397 1.44906V2.84556L163.219 2.98238C160.918 2.98238 159.108 3.22063 158.565 3.60515C157.879 4.08873 157.712 4.51571 157.712 15.6547V20.5165C157.712 31.6413 157.879 32.0801 158.565 32.5637C159.108 32.9458 160.918 33.1841 163.219 33.1841L163.397 33.328V34.7198L163.219 34.8637C160.201 34.7693 157.296 34.6278 154.381 34.6278C151.487 34.6278 148.579 34.7693 145.561 34.8637L145.364 34.7198V33.328L145.561 33.1841C147.858 33.1841 149.679 32.9458 150.206 32.5637C150.873 32.0801 151.07 31.6413 151.07 20.5165V8.69578H150.934C145.123 17.5867 135.633 32.2263 134.311 35.4841H133.03C131.396 31.6413 119.417 13.593 116.392 8.69578H116.275V20.5165C116.275 31.6413 116.448 32.0801 117.118 32.5637C117.656 32.9458 119.473 33.1841 121.602 33.1841L121.782 33.328V34.7198L121.602 34.8637C119.352 34.7693 117.057 34.6278 114.821 34.6278C112.398 34.6278 109.911 34.7693 107.49 34.8637L107.31 34.7198V33.328L107.49 33.1841C109.797 33.1841 111.616 32.9458 112.157 32.5637C112.817 32.0801 113.002 31.6413 113.002 20.5165V15.6547C113.002 4.51571 112.817 4.08873 112.157 3.60515C111.616 3.22063 109.797 2.98238 107.49 2.98238L107.31 2.84791V1.44906Z" fill="#FAFBFF"/>
<path d="M226.952 30.3496C226.458 31.2625 226.028 32.1754 225.599 33.0883C221.684 34.5816 217.14 35.485 211.628 35.485C199.697 35.485 188.257 29.7292 188.257 18.4062C188.257 7.63755 197.416 0.67627 212.525 0.67627C217.554 0.67627 223.984 1.7378 226.573 2.45729L226.952 2.79696C226.102 4.8068 225.749 8.36883 225.791 9.56954L225.599 9.70871H223.674L223.494 9.56954C223.494 8.36883 223.312 7.1634 223.138 5.96269C221.684 4.56854 217.14 2.98096 211.743 2.98096C200.439 2.98096 195.403 10.0909 195.403 16.7148C195.403 25.4595 201.769 32.6095 214.784 32.6095C218.346 32.6095 222.832 31.8381 226.213 30.0241L226.952 30.3496Z" fill="#FAFBFF"/>
<path d="M276.347 2.98235C267.813 2.98235 261.419 8.11543 261.419 16.0911C261.419 26.5153 268.403 33.184 277.537 33.184C287.419 33.184 292.198 26.6568 292.198 18.8841C292.198 6.53494 282.936 2.98235 276.347 2.98235ZM277.368 0.675293C289.58 0.675293 299.33 5.91925 299.33 17.254C299.33 27.3268 289.641 35.4841 275.844 35.4841C259.337 35.4841 254.271 25.9326 254.271 17.8273C254.271 7.0657 264.369 0.675293 277.368 0.675293Z" fill="#FAFBFF"/>
</svg>
