<svg width="194" height="36" viewBox="0 0 194 36" fill="none" xmlns="http://www.w3.org/2000/svg">
<path d="M15.3313 28.5082C15.3313 32.6458 11.9771 36 7.83947 36C3.70185 36 0.347656 32.6458 0.347656 28.5082C0.347656 24.3706 3.70185 21.0164 7.83947 21.0164C11.9771 21.0164 15.3313 24.3706 15.3313 28.5082Z" fill="#485069"/>
<path d="M21.0059 7.63826C21.0059 11.7759 17.6517 15.13 13.5141 15.13C9.37645 15.13 6.02226 11.7759 6.02226 7.63826C6.02226 3.50067 9.37645 0.146484 13.5141 0.146484C17.6517 0.146484 21.0059 3.50067 21.0059 7.63826Z" fill="#485069"/>
<path d="M38.3418 24.9742C38.3418 29.1117 34.9876 32.4659 30.85 32.4659C26.7124 32.4659 23.3582 29.1117 23.3582 24.9742C23.3582 20.8366 26.7124 17.4824 30.85 17.4824C34.9876 17.4824 38.3418 20.8366 38.3418 24.9742Z" fill="#485069"/>
<path d="M38.3418 7.63826C38.3418 11.7759 34.9876 15.13 30.85 15.13C26.7124 15.13 23.3582 11.7759 23.3582 7.63826C23.3582 3.50067 26.7124 0.146484 30.85 0.146484C34.9876 0.146484 38.3418 3.50067 38.3418 7.63826Z" fill="#485069"/>
<path d="M50.4352 22.0867L52.5222 21.6586C52.7005 22.818 53.2089 23.7188 54.0473 24.361C54.9035 24.9853 56.0273 25.2975 57.4186 25.2975C58.7386 25.2975 59.8088 24.9942 60.6294 24.3877C61.4499 23.7813 61.8602 23.0053 61.8602 22.0599C61.8602 21.3643 61.655 20.7756 61.2448 20.294C60.8523 19.8124 60.335 19.4378 59.6929 19.1703C59.0507 18.9027 58.3372 18.6708 57.5524 18.4746C56.7854 18.2605 56.0094 18.0286 55.2246 17.7789C54.4397 17.5114 53.7262 17.1992 53.084 16.8425C52.4419 16.4857 51.9157 15.9773 51.5054 15.3173C51.113 14.6573 50.9168 13.8636 50.9168 12.936C50.9168 11.4912 51.5054 10.2961 52.6827 9.35067C53.8778 8.38744 55.3762 7.90583 57.1778 7.90583C58.9794 7.90583 60.4688 8.37852 61.6461 9.32392C62.8412 10.2693 63.5547 11.4912 63.7866 12.9895L61.6729 13.4176C61.5123 12.3295 61.0218 11.4466 60.2013 10.7688C59.3986 10.0909 58.3818 9.75202 57.151 9.75202C55.9559 9.75202 54.9748 10.0463 54.2078 10.635C53.4408 11.2236 53.0573 11.9639 53.0573 12.8558C53.0573 13.5336 53.2535 14.1044 53.6459 14.5682C54.0562 15.0141 54.5824 15.3619 55.2246 15.6117C55.8667 15.8435 56.5802 16.0665 57.3651 16.2806C58.1499 16.4768 58.9259 16.7087 59.6929 16.9762C60.4777 17.226 61.1912 17.5381 61.8334 17.9127C62.4756 18.2873 62.9929 18.8224 63.3853 19.5181C63.7955 20.1959 64.0007 21.0254 64.0007 22.0064C64.0007 23.5048 63.3674 24.7445 62.101 25.7256C60.8345 26.6888 59.2559 27.1704 57.3651 27.1704C55.4564 27.1704 53.8778 26.7155 52.6292 25.8058C51.3805 24.8961 50.6492 23.6564 50.4352 22.0867Z" fill="#485069"/>
<path d="M85.2286 26.9028H83.1416V8.17339H85.2286V16.6016H96.7071V8.17339H98.7941V26.9028H96.7071V18.4746H85.2286V26.9028Z" fill="#485069"/>
<path d="M129.802 26.9028H118.27V8.17339H129.802V10.0731H120.357V16.6016H129.534V18.4746H120.357V25.0031H129.802V26.9028Z" fill="#485069"/>
<path d="M150.913 26.9028H148.826V8.17339H159.822V10.0731H150.913V16.7354H159.555V18.6351H150.913V26.9028Z" fill="#485069"/>
<path d="M193.135 26.9028H190.888L188.747 21.9262H178.954L176.814 26.9028H174.647L182.781 8.17339H185.001L193.135 26.9028ZM183.851 10.5547L179.757 20.0265H187.918L183.851 10.5547Z" fill="#485069"/>
</svg>
