<svg width="193" height="43" viewBox="0 0 193 43" fill="none" xmlns="http://www.w3.org/2000/svg">
<path d="M12.6005 41.9546C7.4383 41.9546 4.10786 41.1201 1.61003 39.9518L0.111328 31.2729H1.11046L2.27612 33.4426C4.77395 38.4497 8.10439 40.6194 13.1001 40.6194C18.9283 40.6194 22.0922 37.7821 22.0922 32.9419C22.0922 28.7694 19.5944 26.5997 12.767 24.2631C5.10699 21.7596 1.11046 18.5885 1.11046 11.7456C1.11046 4.90262 7.27178 0.0625 14.7653 0.0625C19.5944 0.0625 22.4253 0.730102 24.9231 1.89841L26.4218 10.911H25.2562L24.257 8.74134C21.9257 3.73431 18.9283 1.56461 14.4322 1.56461C9.60309 1.56461 6.77221 4.40192 6.77221 8.57444C6.77221 12.747 9.10352 14.7498 15.5979 16.9195C24.0905 19.7568 27.9205 23.0948 27.9205 29.7708C27.9205 37.1145 20.9266 41.9546 12.6005 41.9546Z" fill="#FAFBFF"/>
<path d="M48.5695 38.4498C46.0716 40.6195 43.7403 41.7878 40.5764 41.7878C36.0803 41.7878 33.5825 39.6181 33.5825 34.778V15.7513H29.4194V14.583L33.9155 12.7471L38.4116 3.90137H40.2434V13.0809H47.9034V15.5844H40.2434V34.4442C40.2434 37.1146 41.7421 38.6167 43.9069 38.6167C45.5721 38.6167 46.4047 38.116 47.9034 37.1146L48.5695 38.4498Z" fill="#FAFBFF"/>
<path d="M64.7218 42.1213C56.5622 42.1213 50.2344 36.7805 50.2344 26.9334C50.2344 18.7552 56.2292 12.2461 64.7218 12.2461C72.8814 12.2461 79.2092 17.5869 79.2092 27.4341C79.2092 35.7791 73.2144 42.1213 64.7218 42.1213ZM63.8892 13.7482C59.8927 13.7482 57.3948 16.7524 57.3948 25.2644C57.3948 34.4439 60.2257 40.6192 65.2214 40.6192C69.3844 40.6192 71.7157 37.615 71.7157 29.1031C71.8822 19.7566 68.8848 13.7482 63.8892 13.7482Z" fill="#FAFBFF"/>
<path d="M114.512 41.4536C113.18 41.4536 109.849 41.4536 107.185 41.4536C104.521 41.4536 101.19 41.4536 99.8579 41.4536V40.4522L100.857 40.2853C103.355 39.7846 103.854 38.9501 103.854 33.7762V22.4269C103.854 18.0875 101.856 15.9178 98.5257 15.9178C96.1944 15.9178 94.1962 16.9192 92.5309 18.2544V33.9431C92.5309 39.2839 93.0305 39.9515 95.5283 40.4522L96.5275 40.6191V41.6205C95.0288 41.6205 91.6983 41.6205 89.2005 41.6205C86.7027 41.6205 83.2057 41.6205 81.8735 41.6205V40.6191L83.0392 40.4522C85.537 40.1184 85.8701 39.117 85.8701 33.4424V20.9248C85.8701 17.9206 85.3705 17.0861 83.3722 15.9178L81.8735 15.2502V14.5826L91.8649 12.246L92.6975 12.7467V16.5854C95.8614 13.915 98.8588 12.0791 102.522 12.0791C107.851 12.0791 110.682 14.9164 110.682 20.9248V33.2755C110.682 39.117 111.181 39.9515 113.513 40.2853L114.512 40.4522V41.4536Z" fill="#FAFBFF"/>
<path d="M122.838 24.43V24.9307C123.005 33.2758 127.334 38.2828 133.329 38.2828C136.493 38.2828 138.824 37.1145 141.322 34.611L142.155 35.2786C139.157 39.618 134.994 42.2884 129.832 42.2884C122.172 42.2884 116.677 37.1145 116.677 28.2687C116.677 18.5885 124.004 12.5801 130.831 12.5801C138.491 12.5801 142.321 16.9195 142.488 24.9307L122.838 24.43ZM135.327 22.9279C135.161 16.9195 132.996 13.9153 129.499 13.9153C125.669 13.9153 123.005 17.2533 122.672 22.9279H135.327Z" fill="#FAFBFF"/>
<path d="M184.285 41.4537C183.286 41.4537 178.123 41.2868 176.125 41.2868C174.127 41.2868 167.632 41.4537 166.467 41.4537V40.6192L168.299 40.2854C170.13 39.9516 170.796 39.4509 170.796 38.4495C170.796 37.4481 170.297 36.2797 168.965 34.4438L162.47 24.5967L155.976 33.4424C154.477 35.6121 153.645 37.1143 153.645 38.1157C153.645 39.1171 154.311 39.9516 156.142 40.2854L158.141 40.6192V41.4537C157.142 41.4537 152.479 41.2868 150.481 41.2868C148.482 41.2868 145.152 41.4537 143.986 41.4537V40.6192L144.985 40.4523C147.483 39.9516 149.981 37.9488 151.979 35.2783L161.305 22.9277L152.146 9.40873C149.981 6.40451 148.482 4.90241 146.151 4.4017L144.819 4.2348V3.4003C145.818 3.4003 150.98 3.5672 152.979 3.5672C154.977 3.5672 161.305 3.4003 162.47 3.4003V4.2348L160.639 4.5686C158.973 4.73551 158.141 5.40311 158.141 6.40451C158.141 7.40592 158.64 8.57422 159.972 10.4101L165.468 18.9221L170.963 11.2446C172.462 9.07492 173.294 7.57282 173.294 6.57141C173.294 5.40311 172.628 4.7355 170.796 4.4017L168.798 4.0679V3.2334C169.797 3.2334 174.46 3.4003 176.458 3.4003C178.456 3.4003 181.787 3.2334 182.952 3.2334V4.0679L181.953 4.2348C179.456 4.73551 177.124 6.73832 174.959 9.40873L166.633 20.4242L176.791 35.2783C178.956 38.2826 180.455 39.7847 182.786 40.2854L184.118 40.4523V41.4537H184.285Z" fill="#FAFBFF"/>
<path d="M188.948 9.74359C188.448 9.74359 188.115 9.74359 187.615 9.57669C187.282 9.40979 186.949 9.24289 186.616 8.90909C186.283 8.57529 186.117 8.24149 185.95 7.90769C185.784 7.57388 185.784 7.07318 185.784 6.57248C185.784 6.07178 185.784 5.73798 185.95 5.23728C186.117 4.90347 186.283 4.56967 186.616 4.23587C186.949 3.90207 187.282 3.73517 187.615 3.56827C187.948 3.40137 188.448 3.40137 188.948 3.40137C189.447 3.40137 189.78 3.40137 190.28 3.56827C190.613 3.73517 190.946 3.90207 191.279 4.23587C191.612 4.56967 191.778 4.90347 191.945 5.23728C192.112 5.57108 192.112 6.07178 192.112 6.57248C192.112 7.07318 192.112 7.40698 191.945 7.90769C191.778 8.24149 191.612 8.57529 191.279 8.90909C190.946 9.24289 190.613 9.40979 190.28 9.57669C189.78 9.74359 189.281 9.74359 188.948 9.74359ZM188.948 9.40979C189.281 9.40979 189.78 9.40979 190.113 9.24289C190.446 9.07599 190.779 8.90909 190.946 8.57529C191.112 8.24149 191.445 8.07459 191.445 7.74079C191.612 7.40699 191.612 7.07318 191.612 6.57248C191.612 6.23868 191.612 5.73798 191.445 5.40417C191.279 5.07037 191.112 4.73657 190.946 4.56967C190.779 4.40277 190.446 4.06897 190.113 3.90207C189.78 3.73517 189.447 3.73517 188.948 3.73517C188.615 3.73517 188.115 3.73517 187.782 3.90207C187.449 4.06897 187.116 4.23587 186.949 4.56967C186.783 4.73657 186.45 5.07037 186.45 5.40417C186.283 5.73798 186.283 6.07178 186.283 6.57248C186.283 6.90628 186.283 7.40699 186.45 7.74079C186.616 8.07459 186.783 8.40839 186.949 8.57529C187.116 8.90909 187.449 9.07599 187.782 9.24289C188.282 9.24289 188.448 9.40979 188.948 9.40979ZM187.615 8.40839V4.73657H189.281C189.78 4.73657 190.113 4.90347 190.28 5.07037C190.446 5.23728 190.613 5.57108 190.613 5.90488C190.613 6.23868 190.446 6.57248 190.28 6.73938C190.113 6.90628 189.78 7.07318 189.281 7.07318H189.447C189.614 7.07318 189.78 7.07318 189.947 7.24008C190.113 7.24008 190.113 7.40699 190.28 7.57389L190.946 8.74219H189.947L189.281 7.57389C189.281 7.40699 189.114 7.40698 189.114 7.40698C189.114 7.40698 188.948 7.40698 188.781 7.40698H188.448V8.90909H187.615V8.40839ZM188.282 6.57248H188.948C189.114 6.57248 189.281 6.57248 189.447 6.40558C189.614 6.40558 189.614 6.23868 189.614 6.07178C189.614 5.90488 189.614 5.73798 189.447 5.57108C189.281 5.40417 189.114 5.40417 188.948 5.40417H188.282V6.57248Z" fill="#FAFBFF"/>
</svg>
