<svg width="26" height="26" viewBox="0 0 26 26" fill="none" xmlns="http://www.w3.org/2000/svg">
<path d="M15.3699 10.5626C15.6407 10.382 15.8213 10.3594 15.9116 10.4949C16.0018 10.6303 15.9341 10.8108 15.7084 11.0365C13.6095 13.2032 12.0522 14.422 11.172 15.4376C10.7657 15.889 10.8785 16.3404 11.5105 16.7918L15.7084 19.6355C17.4012 20.7866 17.9428 19.8387 18.146 18.6876C18.9133 14.58 19.455 11.172 19.771 8.4636C19.9064 7.44797 19.5678 6.9063 18.2814 7.31255C17.0626 7.67366 12.6841 9.5018 5.14587 12.797C3.72398 13.3386 3.99482 13.948 4.80732 14.2188C5.61983 14.4897 6.22921 14.6928 7.04171 14.8959C7.85422 15.0991 8.39589 15.1668 9.34381 14.5574M13.0678 0C16.5097 0.0179269 19.8041 1.40011 22.2284 3.84344C24.6527 6.28677 26.0091 9.59181 26.0001 13.0338C25.9912 16.4757 24.6176 19.7737 22.1806 22.2043C19.7436 24.635 16.4421 26 13.0001 26C9.55812 26 6.25662 24.635 3.81962 22.2043C1.38261 19.7737 0.00900764 16.4757 4.41439e-05 13.0338C-0.00891936 9.59181 1.34748 6.28677 3.7718 3.84344C6.19612 1.40011 9.49045 0.0179269 12.9324 0" fill="#485069"/>
</svg>
