<svg width="24" height="24" viewBox="0 0 24 24" fill="none" xmlns="http://www.w3.org/2000/svg">
<path d="M12 22.75C17.9371 22.75 22.75 17.9371 22.75 12C22.75 6.06294 17.9371 1.25 12 1.25C6.06294 1.25 1.25 6.06294 1.25 12C1.25 17.9371 6.06294 22.75 12 22.75Z" fill="#FFE866"/>
<path d="M3.52539 18.614C5.78489 13.9345 4.43939 7.87846 8.08389 6.92546C11.7284 5.97246 14.1119 7.59796 16.0189 8.15896C17.9259 8.71996 19.5079 9.01696 19.8599 10.794C20.3644 13.3465 12.0649 17.855 13.8319 22.75" fill="#4BCC00"/>
<path d="M3.52539 18.614C5.78489 13.9345 4.43939 7.87846 8.08389 6.92546C11.7284 5.97246 14.1119 7.59796 16.0189 8.15896C17.9259 8.71996 19.5079 9.01696 19.8599 10.794C20.3644 13.3465 12.0649 17.855 13.8319 22.75C11.0342 23.0946 9.29282 22.9938 6.8991 21.6589C5.34903 20.7945 4.63335 20.2051 3.52539 18.614Z" fill="#4BCC00"/>
<path d="M10.5231 11.215C11.4366 11.215 12.1771 10.4745 12.1771 9.56098C12.1771 8.6475 11.4366 7.90698 10.5231 7.90698C9.60966 7.90698 8.86914 8.6475 8.86914 9.56098C8.86914 10.4745 9.60966 11.215 10.5231 11.215Z" fill="white"/>
<path d="M10.9769 10.5264C11.3071 10.5264 11.5973 9.90987 11.547 9.41776C11.4904 8.86339 10.9103 8.44214 10.5801 8.44214" stroke="black" stroke-linecap="round" stroke-linejoin="round"/>
</svg>
