<svg width="884" height="123" viewBox="0 0 884 123" fill="none" xmlns="http://www.w3.org/2000/svg">
<path d="M122.32 0.0821838L97.9228 24.4793H122.32L122.32 48.8765L146.717 24.4793V0.0821838H122.32Z" fill="white"/>
<path d="M0.334106 122.068H105.069C116.114 122.068 126.708 117.68 134.519 109.869V109.869C142.329 102.059 146.717 91.4653 146.717 80.4194V73.2736L146.717 48.8765H122.32H73.5257L49.1285 73.2736H122.32V76.7725C122.32 82.3428 120.107 87.685 116.168 91.6238V91.6238C112.292 95.5006 107.053 97.7078 101.57 97.7739L23.689 98.713L0.334106 122.068Z" fill="white"/>
<path d="M251.503 62.5352C258.237 63.3465 263.511 65.6183 267.324 69.3504C271.218 73.0826 273.166 77.7477 273.166 83.346C273.166 89.6744 270.772 94.9481 265.985 99.1671C261.28 103.386 255.113 105.495 247.487 105.495H206.717V20.305H243.836C251.462 20.305 257.629 22.4551 262.334 26.7552C267.121 31.0553 269.515 36.3695 269.515 42.698C269.515 47.8094 267.933 52.1095 264.768 55.5982C261.604 59.087 257.182 61.3993 251.503 62.5352ZM242.132 35.2742H223.633V55.7199H242.132C245.54 55.7199 248.258 54.7463 250.286 52.7991C252.395 50.8519 253.45 48.3773 253.45 45.3754C253.45 42.3734 252.395 39.9394 250.286 38.0733C248.258 36.2073 245.54 35.2742 242.132 35.2742ZM223.633 90.5263H244.444C247.852 90.5263 250.57 89.5933 252.598 87.7272C254.627 85.78 255.641 83.3054 255.641 80.3035C255.641 77.3015 254.627 74.8675 252.598 73.0014C250.57 71.0542 247.852 70.0806 244.444 70.0806H223.633V90.5263Z" fill="white"/>
<path d="M285.568 97.3416C279.158 91.0943 275.953 83.346 275.953 74.0967C275.953 64.8475 279.158 57.0992 285.568 50.8519C291.977 44.6046 299.969 41.481 309.543 41.481C319.117 41.481 327.108 44.6046 333.518 50.8519C339.927 57.0992 343.132 64.8475 343.132 74.0967C343.132 83.346 339.927 91.0943 333.518 97.3416C327.108 103.589 319.117 106.713 309.543 106.713C299.969 106.713 291.977 103.589 285.568 97.3416ZM292.991 74.0967C292.991 79.127 294.574 83.346 297.738 86.7536C300.902 90.0801 304.837 91.7433 309.543 91.7433C314.249 91.7433 318.184 90.0801 321.348 86.7536C324.512 83.346 326.094 79.127 326.094 74.0967C326.094 69.0664 324.512 64.888 321.348 61.5616C318.184 58.2351 314.249 56.5718 309.543 56.5718C304.837 56.5718 300.902 58.2756 297.738 61.6833C294.574 65.0097 292.991 69.1476 292.991 74.0967Z" fill="white"/>
<path d="M347.785 78.9648V42.698H364.215V78.9648C364.215 82.778 365.432 85.8611 367.866 88.214C370.3 90.5669 373.424 91.7433 377.237 91.7433C381.05 91.7433 384.174 90.5669 386.608 88.214C389.042 85.8611 390.259 82.778 390.259 78.9648V42.698H406.688V78.9648C406.688 87.1593 403.93 93.8528 398.413 99.0454C392.896 104.157 385.837 106.713 377.237 106.713C368.637 106.713 361.578 104.157 356.061 99.0454C350.544 93.8528 347.785 87.1593 347.785 78.9648Z" fill="white"/>
<path d="M430.908 105.495H414.478V15.437H430.908V105.495Z" fill="white"/>
<path d="M486.91 60.3446V15.437H503.34V105.495H486.91V87.8489C485.044 93.6094 482.083 98.1935 478.026 101.601C473.969 105.009 469.223 106.713 463.787 106.713C456.079 106.713 449.629 103.589 444.437 97.3416C439.325 91.0943 436.769 83.346 436.769 74.0967C436.769 64.8475 439.325 57.0992 444.437 50.8519C449.629 44.6046 456.079 41.481 463.787 41.481C469.223 41.481 473.969 43.1848 478.026 46.5924C482.083 50 485.044 54.5841 486.91 60.3446ZM469.75 91.7433C474.781 91.7433 478.878 90.0801 482.042 86.7536C485.287 83.4271 486.91 79.2082 486.91 74.0967C486.91 69.0664 485.287 64.888 482.042 61.5616C478.878 58.2351 474.781 56.5718 469.75 56.5718C465.369 56.5718 461.596 58.2756 458.432 61.6833C455.349 65.0097 453.808 69.1476 453.808 74.0967C453.808 79.127 455.349 83.346 458.432 86.7536C461.515 90.0801 465.288 91.7433 469.75 91.7433Z" fill="white"/>
<path d="M542.134 41.481C552.681 41.481 561.119 45.2942 567.448 52.9208C573.857 60.4663 576.21 69.4721 574.506 79.9384H526.069C527.205 83.7516 529.274 86.8347 532.276 89.1876C535.359 91.4594 539.01 92.5952 543.229 92.5952C550.369 92.5952 555.561 89.6744 558.807 83.8328L572.316 89.9178C569.476 95.0292 565.46 99.1265 560.267 102.21C555.156 105.212 549.314 106.713 542.742 106.713C533.168 106.713 525.177 103.589 518.767 97.3416C512.358 91.0943 509.153 83.346 509.153 74.0967C509.153 64.8475 512.317 57.0992 518.646 50.8519C524.974 44.6046 532.803 41.481 542.134 41.481ZM542.134 55.5982C538.483 55.5982 535.197 56.6935 532.276 58.8841C529.436 60.9936 527.449 63.8333 526.313 67.4032H558.077C556.941 63.8333 554.953 60.9936 552.113 58.8841C549.274 56.6935 545.947 55.5982 542.134 55.5982Z" fill="white"/>
<path d="M597.429 42.698V59.0058C599.457 51.3793 602.581 46.3084 606.8 43.7933C611.1 41.2781 615.805 40.8319 620.917 42.4546V58.0322C614.345 55.7605 608.787 55.8822 604.244 58.3973C599.7 60.8314 597.429 64.8069 597.429 70.324V105.495H580.999V42.698H597.429Z" fill="white"/>
<path d="M664.522 105.496H647.119V35.7613H621.075V20.3053H690.688V35.7613H664.522V105.496Z" fill="white"/>
<path d="M717.832 41.4813C728.379 41.4813 736.817 45.2945 743.146 52.9211C749.555 60.4666 751.908 69.4724 750.204 79.9387H701.767C702.903 83.752 704.972 86.835 707.974 89.1879C711.057 91.4597 714.708 92.5955 718.927 92.5955C726.067 92.5955 731.26 89.6747 734.505 83.8331L748.014 89.9181C745.174 95.0295 741.158 99.1268 735.965 102.21C730.854 105.212 725.012 106.713 718.44 106.713C708.867 106.713 700.875 103.589 694.465 97.3419C688.056 91.0946 684.851 83.3463 684.851 74.097C684.851 64.8478 688.015 57.0995 694.344 50.8522C700.672 44.6049 708.502 41.4813 717.832 41.4813ZM717.832 55.5985C714.181 55.5985 710.895 56.6938 707.974 58.8845C705.135 60.9939 703.147 63.8336 702.011 67.4035H733.775C732.639 63.8336 730.651 60.9939 727.811 58.8845C724.972 56.6938 721.645 55.5985 717.832 55.5985Z" fill="white"/>
<path d="M763.64 97.3419C757.23 91.0946 754.026 83.3463 754.026 74.097C754.026 64.8478 757.23 57.0995 763.64 50.8522C770.05 44.6049 778.041 41.4813 787.615 41.4813C794.349 41.4813 800.394 43.2256 805.748 46.7144C811.103 50.2031 815.119 55.1117 817.797 61.4402L802.706 66.6733C801.327 63.4279 799.298 60.9534 796.621 59.2496C793.943 57.4646 790.941 56.5721 787.615 56.5721C782.909 56.5721 778.974 58.2759 775.81 61.6836C772.646 65.0101 771.064 69.1479 771.064 74.097C771.064 79.1273 772.646 83.3463 775.81 86.7539C778.974 90.0804 782.909 91.7436 787.615 91.7436C790.941 91.7436 793.943 90.8512 796.621 89.0662C799.298 87.2813 801.327 84.7661 802.706 81.5208L817.797 86.7539C815.119 93.0823 811.103 97.9909 805.748 101.48C800.394 104.968 794.349 106.713 787.615 106.713C778.041 106.713 770.05 103.589 763.64 97.3419Z" fill="white"/>
<path d="M860.755 41.4813C867.733 41.4813 873.331 43.9153 877.55 48.7833C881.85 53.6513 884 59.8581 884 67.4035V105.496H867.57V70.3243C867.57 66.2676 866.272 62.9411 863.676 60.3449C861.08 57.7486 857.834 56.4504 853.94 56.4504C849.559 56.4504 845.989 57.7486 843.23 60.3449C840.472 62.9411 839.092 66.2676 839.092 70.3243V105.496H822.663V15.4373H839.092V58.7628C840.715 53.4079 843.433 49.189 847.246 46.1059C851.141 43.0228 855.644 41.4813 860.755 41.4813Z" fill="white"/>
</svg>
