<svg width="755" height="128" viewBox="0 0 755 128" fill="none" xmlns="http://www.w3.org/2000/svg">
<path d="M251.041 35.7991C256.16 36.4158 260.168 38.1425 263.067 40.9793C266.027 43.8161 267.507 47.3621 267.507 51.6173C267.507 56.4275 265.688 60.436 262.049 63.6428C258.473 66.8496 253.786 68.453 247.989 68.453H217V3.70016H245.214C251.011 3.70016 255.697 5.3344 259.274 8.60288C262.913 11.8714 264.732 15.9107 264.732 20.7209C264.732 24.6061 263.529 27.8746 261.124 30.5263C258.719 33.1781 255.358 34.9357 251.041 35.7991ZM243.919 15.0782H229.858V30.6188H243.919C246.509 30.6188 248.575 29.8788 250.116 28.3988C251.72 26.9187 252.521 25.0378 252.521 22.756C252.521 20.4742 251.72 18.6242 250.116 17.2058C248.575 15.7874 246.509 15.0782 243.919 15.0782ZM229.858 57.075H245.676C248.266 57.075 250.332 56.3658 251.874 54.9474C253.416 53.4673 254.187 51.5864 254.187 49.3047C254.187 47.0229 253.416 45.1728 251.874 43.7544C250.332 42.2744 248.266 41.5343 245.676 41.5343H229.858V57.075Z" fill="#F1F7FF"/>
<path d="M276.934 62.2552C272.062 57.5067 269.626 51.6173 269.626 44.587C269.626 37.5567 272.062 31.6672 276.934 26.9187C281.806 22.1701 287.88 19.7959 295.157 19.7959C302.434 19.7959 308.508 22.1701 313.38 26.9187C318.252 31.6672 320.688 37.5567 320.688 44.587C320.688 51.6173 318.252 57.5067 313.38 62.2552C308.508 67.0038 302.434 69.3781 295.157 69.3781C287.88 69.3781 281.806 67.0038 276.934 62.2552ZM282.576 44.587C282.576 48.4105 283.779 51.6173 286.184 54.2074C288.589 56.7358 291.58 58.0001 295.157 58.0001C298.734 58.0001 301.725 56.7358 304.13 54.2074C306.535 51.6173 307.737 48.4105 307.737 44.587C307.737 40.7635 306.535 37.5875 304.13 35.059C301.725 32.5306 298.734 31.2664 295.157 31.2664C291.58 31.2664 288.589 32.5614 286.184 35.1515C283.779 37.68 282.576 40.8251 282.576 44.587Z" fill="#F1F7FF"/>
<path d="M324.225 48.2871V20.7209H336.713V48.2871C336.713 51.1856 337.638 53.529 339.488 55.3174C341.338 57.1058 343.712 58.0001 346.611 58.0001C349.509 58.0001 351.884 57.1058 353.734 55.3174C355.584 53.529 356.509 51.1856 356.509 48.2871V20.7209H368.997V48.2871C368.997 54.5157 366.9 59.6035 362.706 63.5503C358.513 67.4355 353.148 69.3781 346.611 69.3781C340.074 69.3781 334.709 67.4355 330.515 63.5503C326.322 59.6035 324.225 54.5157 324.225 48.2871Z" fill="#F1F7FF"/>
<path d="M387.406 68.453H374.918V0H387.406V68.453Z" fill="#F1F7FF"/>
<path d="M429.973 34.134V0H442.461V68.453H429.973V55.0399C428.554 59.4184 426.303 62.9028 423.22 65.4929C420.136 68.083 416.529 69.3781 412.397 69.3781C406.538 69.3781 401.636 67.0038 397.689 62.2552C393.804 57.5067 391.861 51.6173 391.861 44.587C391.861 37.5567 393.804 31.6672 397.689 26.9187C401.636 22.1701 406.538 19.7959 412.397 19.7959C416.529 19.7959 420.136 21.0909 423.22 23.681C426.303 26.2712 428.554 29.7555 429.973 34.134ZM416.93 58.0001C420.753 58.0001 423.867 56.7358 426.272 54.2074C428.739 51.6789 429.973 48.4721 429.973 44.587C429.973 40.7635 428.739 37.5875 426.272 35.059C423.867 32.5306 420.753 31.2664 416.93 31.2664C413.599 31.2664 410.732 32.5614 408.327 35.1515C405.983 37.68 404.812 40.8251 404.812 44.587C404.812 48.4105 405.983 51.6173 408.327 54.2074C410.67 56.7358 413.538 58.0001 416.93 58.0001Z" fill="#F1F7FF"/>
<path d="M471.948 19.7959C479.965 19.7959 486.378 22.6943 491.188 28.4913C496.06 34.2265 497.849 41.0718 496.554 49.0272H459.737C460.6 51.9256 462.173 54.2691 464.455 56.0575C466.798 57.7842 469.573 58.6476 472.78 58.6476C478.207 58.6476 482.154 56.4275 484.621 51.9873L494.888 56.6125C492.73 60.4977 489.677 63.612 485.731 65.9554C481.845 68.2372 477.405 69.3781 472.41 69.3781C465.133 69.3781 459.059 67.0038 454.187 62.2552C449.315 57.5067 446.879 51.6173 446.879 44.587C446.879 37.5567 449.284 31.6672 454.094 26.9187C458.905 22.1701 464.856 19.7959 471.948 19.7959ZM471.948 30.5263C469.172 30.5263 466.675 31.3589 464.455 33.024C462.296 34.6274 460.785 36.7858 459.922 39.4992H484.066C483.202 36.7858 481.691 34.6274 479.533 33.024C477.374 31.3589 474.846 30.5263 471.948 30.5263Z" fill="#F1F7FF"/>
<path d="M513.977 20.7209V33.1165C515.519 27.3195 517.893 23.4652 521.1 21.5534C524.368 19.6417 527.945 19.3025 531.83 20.5359V32.3764C526.835 30.6497 522.61 30.7422 519.157 32.6539C515.703 34.504 513.977 37.5258 513.977 41.7193V68.453H501.489V20.7209H513.977Z" fill="#F1F7FF"/>
<path d="M587.994 68.453H574.766V15.4482H554.97V3.70016H607.882V15.4482H587.994V68.453Z" fill="#F1F7FF"/>
<path d="M628.514 19.7959C636.531 19.7959 642.944 22.6943 647.755 28.4913C652.626 34.2265 654.415 41.0718 653.12 49.0272H616.303C617.167 51.9256 618.739 54.2691 621.021 56.0575C623.364 57.7842 626.14 58.6476 629.346 58.6476C634.773 58.6476 638.72 56.4275 641.187 51.9873L651.455 56.6125C649.296 60.4977 646.244 63.612 642.297 65.9554C638.412 68.2372 633.971 69.3781 628.976 69.3781C621.699 69.3781 615.625 67.0038 610.753 62.2552C605.881 57.5067 603.445 51.6173 603.445 44.587C603.445 37.5567 605.85 31.6672 610.661 26.9187C615.471 22.1701 621.422 19.7959 628.514 19.7959ZM628.514 30.5263C625.739 30.5263 623.241 31.3589 621.021 33.024C618.863 34.6274 617.352 36.7858 616.488 39.4992H640.632C639.768 36.7858 638.257 34.6274 636.099 33.024C633.941 31.3589 631.412 30.5263 628.514 30.5263Z" fill="#F1F7FF"/>
<path d="M663.332 62.2552C658.46 57.5067 656.024 51.6173 656.024 44.587C656.024 37.5567 658.46 31.6672 663.332 26.9187C668.204 22.1701 674.278 19.7959 681.555 19.7959C686.674 19.7959 691.268 21.1218 695.338 23.7735C699.409 26.4253 702.461 30.1563 704.496 34.9665L693.026 38.9442C691.977 36.4774 690.436 34.5965 688.401 33.3015C686.365 31.9447 684.084 31.2664 681.555 31.2664C677.979 31.2664 674.988 32.5614 672.582 35.1515C670.177 37.68 668.975 40.8251 668.975 44.587C668.975 48.4105 670.177 51.6173 672.582 54.2074C674.988 56.7358 677.979 58.0001 681.555 58.0001C684.084 58.0001 686.365 57.3217 688.401 55.965C690.436 54.6082 691.977 52.6965 693.026 50.2297L704.496 54.2074C702.461 59.0176 699.409 62.7486 695.338 65.4004C691.268 68.0522 686.674 69.3781 681.555 69.3781C674.278 69.3781 668.204 67.0038 663.332 62.2552Z" fill="#F1F7FF"/>
<path d="M737.149 19.7959C742.452 19.7959 746.707 21.646 749.914 25.3461C753.183 29.0463 754.817 33.764 754.817 39.4992V68.453H742.329V41.7193C742.329 38.6359 741.342 36.1074 739.369 34.134C737.395 32.1606 734.929 31.1739 731.968 31.1739C728.638 31.1739 725.925 32.1606 723.828 34.134C721.731 36.1074 720.683 38.6359 720.683 41.7193V68.453H708.195V0H720.683V32.9314C721.916 28.8613 723.982 25.6545 726.881 23.311C729.841 20.9676 733.264 19.7959 737.149 19.7959Z" fill="#F1F7FF"/>
<path d="M128 0L102.4 25.6H128L128 51.2L153.6 25.6V0H128Z" fill="#F1F7FF"/>
<path d="M0 128H109.898C121.489 128 132.604 123.396 140.8 115.2C148.996 107.004 153.6 95.8885 153.6 84.2981L153.6 51.2H128H76.8001L51.2001 76.8H128V80.4714C128 86.3163 125.678 91.9219 121.545 96.0549C117.477 100.123 111.98 102.439 106.227 102.508L24.5064 103.494L0 128Z" fill="#F1F7FF"/>
<path d="M230.171 120.008H225.859V96.4488H217V92.568H239.03V96.4488H230.171V120.008Z" fill="#F1F7FF"/>
<path d="M252.438 99.5848C254.868 99.5848 256.855 100.382 258.396 101.976C259.964 103.57 260.748 105.595 260.748 108.052V120.008H256.632V108.679C256.632 107.137 256.123 105.87 255.104 104.877C254.084 103.858 252.804 103.348 251.262 103.348C249.72 103.348 248.427 103.858 247.381 104.877C246.362 105.87 245.852 107.137 245.852 108.679V120.008H241.736V91H245.852V102.838C247.447 100.669 249.642 99.5848 252.438 99.5848Z" fill="#F1F7FF"/>
<path d="M274.846 99.5848C278.06 99.5848 280.674 100.735 282.686 103.034C284.698 105.334 285.522 108.117 285.156 111.384H268.574C268.862 113.004 269.606 114.324 270.808 115.343C272.011 116.336 273.461 116.833 275.16 116.833C276.466 116.833 277.629 116.519 278.648 115.892C279.694 115.239 280.504 114.363 281.079 113.266L284.528 114.794C283.64 116.493 282.372 117.852 280.726 118.871C279.08 119.89 277.185 120.4 275.042 120.4C272.037 120.4 269.515 119.407 267.476 117.421C265.438 115.435 264.419 112.965 264.419 110.012C264.419 107.059 265.412 104.589 267.398 102.603C269.41 100.591 271.893 99.5848 274.846 99.5848ZM274.846 103.152C273.33 103.152 272.011 103.622 270.887 104.563C269.789 105.478 269.057 106.68 268.692 108.17H281C280.661 106.68 279.929 105.478 278.805 104.563C277.708 103.622 276.388 103.152 274.846 103.152Z" fill="#F1F7FF"/>
<path d="M312.21 104.877H328.36C328.543 107.124 328.295 109.241 327.615 111.227C326.936 113.187 325.943 114.834 324.636 116.166C323.329 117.473 321.788 118.505 320.011 119.263C318.233 120.021 316.378 120.4 314.444 120.4C310.393 120.4 306.983 119.041 304.213 116.323C301.469 113.605 300.097 110.26 300.097 106.288C300.097 102.316 301.469 98.9707 304.213 96.2528C306.983 93.5349 310.393 92.176 314.444 92.176C317.371 92.176 319.958 92.9469 322.206 94.4888C324.453 96.0045 326.087 97.8861 327.106 100.134L323.107 101.702C322.323 100.055 321.16 98.7224 319.619 97.7032C318.103 96.684 316.378 96.1744 314.444 96.1744C311.648 96.1744 309.296 97.1544 307.388 99.1144C305.507 101.048 304.566 103.439 304.566 106.288C304.566 109.137 305.507 111.541 307.388 113.501C309.296 115.435 311.648 116.402 314.444 116.402C316.927 116.402 319.017 115.657 320.716 114.167C322.441 112.651 323.421 110.848 323.656 108.758H312.21V104.877Z" fill="#F1F7FF"/>
<path d="M340.81 99.5848C343.214 99.5848 345.174 100.212 346.69 101.466C348.206 102.721 348.963 104.524 348.963 106.876V120.008H344.847V117.029C343.201 119.276 340.875 120.4 337.87 120.4C335.962 120.4 334.407 119.89 333.205 118.871C332.003 117.852 331.402 116.493 331.402 114.794C331.402 112.834 332.094 111.371 333.479 110.404C334.865 109.411 336.628 108.797 338.771 108.562L342.652 108.17C344.116 108.039 344.847 107.386 344.847 106.21C344.847 105.243 344.469 104.472 343.711 103.897C342.979 103.322 342.012 103.034 340.81 103.034C339.582 103.034 338.536 103.348 337.674 103.975C336.838 104.602 336.302 105.517 336.067 106.719L331.99 105.739C332.356 103.858 333.336 102.368 334.93 101.27C336.524 100.147 338.484 99.5848 340.81 99.5848ZM338.771 117.068C340.47 117.068 341.907 116.506 343.083 115.382C344.259 114.233 344.847 112.9 344.847 111.384V110.6C344.508 110.914 343.75 111.136 342.574 111.266L338.771 111.737C337.778 111.867 336.981 112.168 336.38 112.638C335.805 113.083 335.518 113.697 335.518 114.481C335.518 115.265 335.805 115.892 336.38 116.362C336.981 116.833 337.778 117.068 338.771 117.068Z" fill="#F1F7FF"/>
<path d="M354.921 103.622H350.648V99.9768H354.921V93.4696L359.037 92.176V99.9768H364.682V103.622H359.037V112.874C359.037 114.102 359.311 114.99 359.86 115.539C360.409 116.088 361.284 116.362 362.487 116.362H364.682V120.008H362.487C359.899 120.008 357.992 119.407 356.763 118.205C355.535 117.003 354.921 115.16 354.921 112.678V103.622Z" fill="#F1F7FF"/>
<path d="M377.287 99.5848C380.501 99.5848 383.114 100.735 385.127 103.034C387.139 105.334 387.962 108.117 387.596 111.384H371.015C371.302 113.004 372.047 114.324 373.249 115.343C374.451 116.336 375.902 116.833 377.6 116.833C378.907 116.833 380.07 116.519 381.089 115.892C382.134 115.239 382.945 114.363 383.519 113.266L386.969 114.794C386.081 116.493 384.813 117.852 383.167 118.871C381.52 119.89 379.626 120.4 377.483 120.4C374.477 120.4 371.955 119.407 369.917 117.421C367.879 115.435 366.859 112.965 366.859 110.012C366.859 107.059 367.853 104.589 369.839 102.603C371.851 100.591 374.334 99.5848 377.287 99.5848ZM377.287 103.152C375.771 103.152 374.451 103.622 373.327 104.563C372.23 105.478 371.498 106.68 371.132 108.17H383.441C383.101 106.68 382.37 105.478 381.246 104.563C380.148 103.622 378.829 103.152 377.287 103.152Z" fill="#F1F7FF"/>
<path d="M411.942 115.853L416.842 99.9768H420.918L414.137 120.008H409.59L404.69 105.857L399.79 120.008H395.242L388.461 99.9768H392.812L397.712 115.853L402.73 99.9768H406.924L411.942 115.853Z" fill="#F1F7FF"/>
<path d="M431.23 99.5848C433.634 99.5848 435.594 100.212 437.11 101.466C438.626 102.721 439.384 104.524 439.384 106.876V120.008H435.268V117.029C433.621 119.276 431.296 120.4 428.29 120.4C426.382 120.4 424.828 119.89 423.625 118.871C422.423 117.852 421.822 116.493 421.822 114.794C421.822 112.834 422.515 111.371 423.9 110.404C425.285 109.411 427.049 108.797 429.192 108.562L433.073 108.17C434.536 108.039 435.268 107.386 435.268 106.21C435.268 105.243 434.889 104.472 434.131 103.897C433.399 103.322 432.432 103.034 431.23 103.034C430.002 103.034 428.957 103.348 428.094 103.975C427.258 104.602 426.722 105.517 426.487 106.719L422.41 105.739C422.776 103.858 423.756 102.368 425.35 101.27C426.944 100.147 428.904 99.5848 431.23 99.5848ZM429.192 117.068C430.89 117.068 432.328 116.506 433.504 115.382C434.68 114.233 435.268 112.9 435.268 111.384V110.6C434.928 110.914 434.17 111.136 432.994 111.266L429.192 111.737C428.199 111.867 427.402 112.168 426.801 112.638C426.226 113.083 425.938 113.697 425.938 114.481C425.938 115.265 426.226 115.892 426.801 116.362C427.402 116.833 428.199 117.068 429.192 117.068Z" fill="#F1F7FF"/>
<path d="M451.559 115.892L457.714 99.9768H461.908L450.462 127.848H446.267L449.286 120.518L440.897 99.9768H445.366L451.559 115.892Z" fill="#F1F7FF"/>
<path d="M487.192 120.008H482.88V96.4488H474.02V92.568H496.051V96.4488H487.192V120.008Z" fill="#F1F7FF"/>
<path d="M498.657 117.421C496.618 115.435 495.599 112.965 495.599 110.012C495.599 107.059 496.618 104.589 498.657 102.603C500.695 100.591 503.217 99.5848 506.223 99.5848C509.228 99.5848 511.75 100.591 513.788 102.603C515.826 104.589 516.846 107.059 516.846 110.012C516.846 112.965 515.826 115.435 513.788 117.421C511.75 119.407 509.228 120.4 506.223 120.4C503.217 120.4 500.695 119.407 498.657 117.421ZM501.675 105.308C500.447 106.562 499.833 108.13 499.833 110.012C499.833 111.894 500.447 113.462 501.675 114.716C502.904 115.97 504.419 116.598 506.223 116.598C508.052 116.598 509.568 115.97 510.77 114.716C511.998 113.462 512.612 111.894 512.612 110.012C512.612 108.104 511.998 106.523 510.77 105.269C509.568 104.014 508.052 103.387 506.223 103.387C504.419 103.387 502.904 104.027 501.675 105.308Z" fill="#F1F7FF"/>
<path d="M530.727 108.326L539.978 120.008H534.765L527.944 111.384L524.808 114.755V120.008H520.692V91H524.808V109.346L533.275 99.9768H538.449L530.727 108.326Z" fill="#F1F7FF"/>
<path d="M550.356 99.5848C553.571 99.5848 556.184 100.735 558.196 103.034C560.208 105.334 561.032 108.117 560.666 111.384H544.084C544.372 113.004 545.116 114.324 546.319 115.343C547.521 116.336 548.971 116.833 550.67 116.833C551.976 116.833 553.139 116.519 554.159 115.892C555.204 115.239 556.014 114.363 556.589 113.266L560.039 114.794C559.15 116.493 557.883 117.852 556.236 118.871C554.59 119.89 552.695 120.4 550.552 120.4C547.547 120.4 545.025 119.407 542.987 117.421C540.948 115.435 539.929 112.965 539.929 110.012C539.929 107.059 540.922 104.589 542.908 102.603C544.92 100.591 547.403 99.5848 550.356 99.5848ZM550.356 103.152C548.84 103.152 547.521 103.622 546.397 104.563C545.299 105.478 544.568 106.68 544.202 108.17H556.511C556.171 106.68 555.439 105.478 554.315 104.563C553.218 103.622 551.898 103.152 550.356 103.152Z" fill="#F1F7FF"/>
<path d="M575.34 99.5848C577.771 99.5848 579.757 100.382 581.299 101.976C582.867 103.57 583.651 105.595 583.651 108.052V120.008H579.535V108.679C579.535 107.137 579.025 105.87 578.006 104.877C576.987 103.858 575.706 103.348 574.164 103.348C572.623 103.348 571.329 103.858 570.284 104.877C569.264 105.87 568.755 107.137 568.755 108.679V120.008H564.639V99.9768H568.755V102.838C570.349 100.669 572.544 99.5848 575.34 99.5848Z" fill="#F1F7FF"/>
</svg>
