<svg width="19" height="14" viewBox="0 0 19 14" fill="none" xmlns="http://www.w3.org/2000/svg">
<path d="M17.1 8.20104C17.1 10.0135 16.2497 11.6537 14.8741 12.8404L16.2174 14C17.1009 13.2393 17.8015 12.3354 18.279 11.3402C18.7565 10.345 19.0015 9.27821 19 8.20104C19 3.67161 14.7468 0 9.5 0C4.25315 0 7.69642e-06 3.67161 7.69642e-06 8.20104C-0.00158302 9.27822 0.243422 10.3451 0.720944 11.3402C1.19847 12.3354 1.89909 13.2393 2.78256 14L4.12585 12.8404C3.24213 12.0774 2.59 11.1381 2.22722 10.1057C1.86444 9.07321 1.80222 7.97945 2.04605 6.92126C2.28989 5.86308 2.83227 4.87313 3.62514 4.03912C4.41801 3.20511 5.4369 2.55276 6.59157 2.13987C7.74624 1.72699 9.00104 1.56629 10.2448 1.67203C11.4886 1.77777 12.683 2.14668 13.7222 2.74607C14.7614 3.34547 15.6133 4.15685 16.2025 5.10836C16.7917 6.05987 17.0999 7.12212 17.1 8.20104ZM12.6283 4.34081L8.075 7.79099L9.975 9.4312L13.9716 5.50044L12.6283 4.34081Z" fill="#FAFBFF"/>
</svg>
