<svg width="15" height="16" viewBox="0 0 15 16" fill="none" xmlns="http://www.w3.org/2000/svg">
<path d="M7.49987 0L13.8604 1.328C14.0323 1.3639 14.1861 1.45379 14.2962 1.58284C14.4064 1.71189 14.4665 1.87238 14.4665 2.03782V9.30109C14.4665 10.0194 14.2777 10.7267 13.9169 11.36C13.556 11.9933 13.0344 12.5332 12.3982 12.9316L7.49987 16L2.60153 12.9316C1.96545 12.5333 1.44387 11.9935 1.08307 11.3603C0.72226 10.7271 0.533386 10.02 0.533203 9.30182V2.03782C0.533233 1.87238 0.593301 1.71189 0.703491 1.58284C0.813682 1.45379 0.96741 1.3639 1.1393 1.328L7.49987 0ZM10.946 5.25236L7.11438 8.85164L4.9253 6.79491L3.83076 7.82327L7.11516 10.9091L12.0414 6.28073L10.946 5.25236Z" fill="#FAFBFF"/>
</svg>
