<svg width="18" height="16" viewBox="0 0 18 16" fill="none" xmlns="http://www.w3.org/2000/svg">
<path d="M10.7969 7.29778e-07C12.4438 -0.00069818 14.0412 0.500633 15.3226 1.42038C16.6041 2.34013 17.4922 3.6227 17.8388 5.05418C18.1853 6.48565 17.9695 7.97951 17.2271 9.28659C16.4848 10.5937 15.2609 11.635 13.7595 12.2368C13.2796 13.1801 12.5496 14.0059 11.6319 14.6432C10.7143 15.2806 9.63642 15.7106 8.49084 15.8962C7.34525 16.0819 6.16611 16.0177 5.05454 15.7093C3.94297 15.4008 2.93214 14.8572 2.10874 14.1251C1.28534 13.393 0.673952 12.4943 0.327 11.506C-0.0199507 10.5177 -0.0921072 9.46931 0.116719 8.45077C0.325546 7.43223 0.809124 6.47392 1.52598 5.65803C2.24284 4.84214 3.17158 4.19303 4.23255 3.76635C4.80325 2.64364 5.72611 1.69114 6.89044 1.02309C8.05478 0.355042 9.41114 -0.000189689 10.7969 7.29778e-07ZM8.09698 5.60111H6.29706V6.40127C5.71219 6.4 5.14975 6.60129 4.72895 6.96245C4.30816 7.32362 4.06209 7.81628 4.04289 8.33602C4.0237 8.85575 4.2329 9.3617 4.62614 9.74663C5.01938 10.1316 5.56576 10.3652 6.14947 10.3981L6.29706 10.4021H8.09698L8.17798 10.4085C8.28173 10.4252 8.37559 10.4737 8.44318 10.5457C8.51076 10.6176 8.54779 10.7084 8.54779 10.8021C8.54779 10.8959 8.51076 10.9867 8.44318 11.0586C8.37559 11.1306 8.28173 11.1791 8.17798 11.1958L8.09698 11.2022H4.49714V12.8025H6.29706V13.6027H8.09698V12.8025C8.68186 12.8038 9.2443 12.6025 9.66509 12.2414C10.0859 11.8802 10.332 11.3875 10.3511 10.8678C10.3703 10.3481 10.1611 9.8421 9.7679 9.45718C9.37466 9.07224 8.82828 8.83859 8.24458 8.80575L8.09698 8.80175H6.29706L6.21606 8.79534C6.11231 8.77864 6.01846 8.73008 5.95087 8.65813C5.88328 8.58618 5.84626 8.49541 5.84626 8.40167C5.84626 8.30792 5.88328 8.21715 5.95087 8.1452C6.01846 8.07325 6.11231 8.02469 6.21606 8.00799L6.29706 8.00159H9.8969V6.40127H8.09698V5.60111ZM10.7969 1.60032C10.0342 1.59941 9.27994 1.74253 8.58411 2.02021C7.88828 2.29788 7.26671 2.70378 6.76054 3.21104C7.77773 3.15613 8.79645 3.29385 9.74932 3.61507C10.7022 3.9363 11.5675 4.43371 12.2881 5.07443C13.0086 5.71515 13.568 6.48456 13.9291 7.3318C14.2903 8.17904 14.4451 9.0848 14.3832 9.98918C15.2015 9.34235 15.7792 8.48964 16.0399 7.54415C16.3005 6.59865 16.2317 5.60504 15.8426 4.69511C15.4535 3.78517 14.7625 3.00191 13.8612 2.44919C12.9599 1.89648 11.8909 1.60043 10.796 1.60032H10.7969Z" fill="#FAFBFF"/>
</svg>
