<svg width="16" height="16" viewBox="0 0 16 16" fill="none" xmlns="http://www.w3.org/2000/svg">
<path d="M6.22326 7.66781H7.66992C8.06389 7.66781 8.454 7.7454 8.81797 7.89617C9.18195 8.04693 9.51267 8.26791 9.79124 8.54649C10.0698 8.82506 10.2908 9.15578 10.4416 9.51976C10.5923 9.88373 10.6699 10.2738 10.6699 10.6678H6.00259V11.3345H11.3359V10.6678C11.334 9.95852 11.1293 9.26456 10.7459 8.66781H12.6699C13.3002 8.66769 13.9175 8.84626 14.4504 9.18278C14.9833 9.51931 15.4098 10 15.6806 10.5691C14.1039 12.6498 11.5513 14.0018 8.66992 14.0018C6.82926 14.0018 5.26992 13.6085 4.00326 12.9185V6.71581C4.81427 6.83177 5.58018 7.16021 6.22326 7.66781ZM3.33659 12.6678C3.33659 12.8446 3.26635 13.0142 3.14133 13.1392C3.0163 13.2642 2.84673 13.3345 2.66992 13.3345H1.33659C1.15978 13.3345 0.990208 13.2642 0.865184 13.1392C0.74016 13.0142 0.669922 12.8446 0.669922 12.6678V6.66781C0.669922 6.49099 0.74016 6.32143 0.865184 6.1964C0.990208 6.07138 1.15978 6.00114 1.33659 6.00114H2.66992C2.84673 6.00114 3.0163 6.07138 3.14133 6.1964C3.26635 6.32143 3.33659 6.49099 3.33659 6.66781V12.6678ZM12.0033 3.33447C12.5338 3.33447 13.0426 3.54522 13.4177 3.92036C13.7928 4.29549 14.0036 4.80428 14.0036 5.33481C14.0036 5.86533 13.7928 6.37412 13.4177 6.74926C13.0426 7.12439 12.5338 7.33514 12.0033 7.33514C11.4728 7.33514 10.9641 7.12443 10.589 6.74935C10.214 6.37428 10.0033 5.86557 10.0033 5.33514C10.0033 4.80471 10.214 4.296 10.589 3.92093C10.9641 3.54585 11.4728 3.33447 12.0033 3.33447ZM7.33659 1.33447C7.86711 1.33447 8.3759 1.54522 8.75104 1.92036C9.12617 2.29549 9.33692 2.80428 9.33692 3.33481C9.33692 3.86533 9.12617 4.37412 8.75104 4.74926C8.3759 5.12439 7.86711 5.33514 7.33659 5.33514C6.80616 5.33514 6.29745 5.12443 5.92238 4.74935C5.5473 4.37428 5.33659 3.86557 5.33659 3.33514C5.33659 2.80471 5.5473 2.296 5.92238 1.92093C6.29745 1.54585 6.80616 1.33447 7.33659 1.33447Z" fill="#FAFBFF"/>
</svg>
