<svg width="15" height="16" viewBox="0 0 15 16" fill="none" xmlns="http://www.w3.org/2000/svg">
<path d="M14.1667 2.52632C14.1667 3.19634 13.9033 3.83891 13.4344 4.31269C12.9656 4.78647 12.3297 5.05263 11.6667 5.05263C11.0036 5.05263 10.3677 4.78647 9.8989 4.31269C9.43006 3.83891 9.16667 3.19634 9.16667 2.52632C9.16667 1.8563 9.43006 1.21372 9.8989 0.739941C10.3677 0.266165 11.0036 0 11.6667 0C12.3297 0 12.9656 0.266165 13.4344 0.739941C13.9033 1.21372 14.1667 1.8563 14.1667 2.52632ZM3.33333 0.842105C2.44928 0.842105 1.60143 1.19699 0.976311 1.82869C0.351189 2.46039 0 3.31717 0 4.21053V5.89474H1.66667V4.21053C1.66667 3.76385 1.84226 3.33546 2.15482 3.01961C2.46738 2.70376 2.89131 2.52632 3.33333 2.52632H5.83333V0.842105H3.33333ZM11.6667 16C12.5507 16 13.3986 15.6451 14.0237 15.0134C14.6488 14.3817 15 13.5249 15 12.6316V10.9474H13.3333V12.6316C13.3333 13.0783 13.1577 13.5066 12.8452 13.8225C12.5326 14.1383 12.1087 14.3158 11.6667 14.3158H9.16667V16H11.6667ZM3.33333 11.7895C3.99637 11.7895 4.63226 11.5233 5.1011 11.0495C5.56994 10.5758 5.83333 9.93318 5.83333 9.26316C5.83333 8.59314 5.56994 7.95056 5.1011 7.47678C4.63226 7.00301 3.99637 6.73684 3.33333 6.73684C2.67029 6.73684 2.03441 7.00301 1.56557 7.47678C1.09673 7.95056 0.833333 8.59314 0.833333 9.26316C0.833333 9.93318 1.09673 10.5758 1.56557 11.0495C2.03441 11.5233 2.67029 11.7895 3.33333 11.7895ZM11.6667 5.89474C10.7826 5.89474 9.93476 6.24962 9.30964 6.88132C8.68452 7.51303 8.33333 8.3698 8.33333 9.26316H15C15 8.3698 14.6488 7.51303 14.0237 6.88132C13.3986 6.24962 12.5507 5.89474 11.6667 5.89474ZM0 16C0 15.1066 0.351189 14.2499 0.976311 13.6182C1.60143 12.9865 2.44928 12.6316 3.33333 12.6316C4.21739 12.6316 5.06523 12.9865 5.69036 13.6182C6.31548 14.2499 6.66667 15.1066 6.66667 16H0Z" fill="#FAFBFF"/>
</svg>
