<svg width="29" height="30" viewBox="0 0 29 30" fill="none" xmlns="http://www.w3.org/2000/svg">
<path d="M21.4866 24.3973C19.456 25.8726 17.0105 26.6672 14.5005 26.6672C11.9906 26.6672 9.54507 25.8726 7.51447 24.3973M19.7108 4.09924C21.9667 5.19953 23.8164 6.98575 24.9947 9.20191C26.1731 11.4181 26.6196 13.9504 26.2703 16.4359M2.73092 16.4358C2.3816 13.9503 2.82811 11.418 4.00646 9.2018C5.18481 6.98564 7.03451 5.19941 9.29044 4.09912" stroke="white" stroke-width="2.37708" stroke-linecap="round" stroke-linejoin="round"/>
<path d="M16.9238 20.7185C19.3926 19.7506 21.1413 17.3468 21.1413 14.5341C21.1413 10.8668 18.1683 7.89382 14.5009 7.89382C10.8336 7.89382 7.86061 10.8668 7.86061 14.5341C7.86061 18.2015 10.8336 21.1745 14.5009 21.1745C15.3555 21.1745 16.1729 21.0129 16.9238 20.7185ZM14.5009 19.6467C11.6774 19.6467 9.38841 17.3577 9.38841 14.5341C9.38841 11.7106 11.6774 9.42161 14.5009 9.42161C17.3245 9.42161 19.6135 11.7106 19.6135 14.5341C19.6135 17.3577 17.3245 19.6467 14.5009 19.6467Z" fill="white" stroke="white" stroke-width="0.413539"/>
<rect x="15.5037" y="18.3178" width="1.24542" height="4.25401" rx="0.622711" transform="rotate(-31.5594 15.5037 18.3178)" fill="white" stroke="white" stroke-width="0.413539"/>
</svg>
