<svg width="41" height="41" viewBox="0 0 41 41" fill="none" xmlns="http://www.w3.org/2000/svg">
<rect x="0.62059" y="0.882233" width="40" height="40" rx="20" fill="#193A8A"/>
<path d="M27.6066 30.4977C25.5761 31.973 23.1305 32.7676 20.6206 32.7676C18.1106 32.7676 15.6651 31.973 13.6345 30.4977M25.8308 10.1997C28.0867 11.3 29.9364 13.0862 31.1148 15.3024C32.2931 17.5185 32.7396 20.0508 32.3903 22.5363M8.85095 22.5362C8.50163 20.0507 8.94815 17.5184 10.1265 15.3022C11.3048 13.0861 13.1545 11.2999 15.4105 10.1996" stroke="white" stroke-width="2.37708" stroke-linecap="round" stroke-linejoin="round"/>
<path d="M20.6207 13.9944C24.288 13.9944 27.2613 16.9677 27.2613 20.635C27.2613 23.3598 25.62 25.7012 23.273 26.7249L23.0435 26.8196C22.2927 27.114 21.4752 27.2756 20.6207 27.2757C16.9534 27.2757 13.9801 24.3024 13.9801 20.635C13.9801 16.9677 16.9533 13.9944 20.6207 13.9944ZM20.6207 15.5227C17.7971 15.5227 15.5084 17.8115 15.5084 20.635C15.5084 23.4586 17.7971 25.7473 20.6207 25.7473C23.4442 25.7473 25.733 23.4586 25.733 20.635C25.733 17.8115 23.4442 15.5227 20.6207 15.5227Z" fill="white" stroke="white" stroke-width="0.413539"/>
<rect x="21.6232" y="24.4186" width="1.24542" height="4.25401" rx="0.622711" transform="rotate(-31.5594 21.6232 24.4186)" fill="white" stroke="white" stroke-width="0.413539"/>
</svg>
