<svg width="41" height="41" viewBox="0 0 41 41" fill="none" xmlns="http://www.w3.org/2000/svg">
<rect x="0.620605" y="0.882233" width="40" height="40" rx="20" fill="#C42933"/>
<path d="M27.6067 30.4977C25.5761 31.973 23.1305 32.7676 20.6206 32.7676C18.1106 32.7676 15.6651 31.973 13.6345 30.4977M25.8308 10.1997C28.0867 11.3 29.9364 13.0862 31.1148 15.3024C32.2931 17.5185 32.7397 20.0508 32.3903 22.5363M8.85096 22.5362C8.50165 20.0507 8.94816 17.5184 10.1265 15.3022C11.3049 13.0861 13.1546 11.2999 15.4105 10.1996" stroke="white" stroke-width="2.37708" stroke-linecap="round" stroke-linejoin="round"/>
<path d="M17.0193 25.4681C16.3897 25.4681 15.8255 25.3659 15.3267 25.1614C14.8279 24.957 14.4272 24.6545 14.1247 24.2538C13.8303 23.8532 13.675 23.3707 13.6586 22.8065H15.8909C15.9236 23.1254 16.034 23.3707 16.222 23.5425C16.4101 23.706 16.6554 23.7878 16.9579 23.7878C17.2687 23.7878 17.514 23.7183 17.6938 23.5792C17.8737 23.4321 17.9637 23.2317 17.9637 22.9783C17.9637 22.7657 17.8901 22.5899 17.7429 22.4509C17.6039 22.3119 17.4281 22.1974 17.2155 22.1074C17.0111 22.0175 16.7167 21.9153 16.3324 21.8008C15.7764 21.6291 15.3226 21.4574 14.971 21.2857C14.6194 21.114 14.3169 20.8605 14.0634 20.5252C13.8099 20.19 13.6832 19.7525 13.6832 19.2129C13.6832 18.4115 13.9734 17.786 14.554 17.3363C15.1345 16.8784 15.8909 16.6495 16.823 16.6495C17.7715 16.6495 18.5361 16.8784 19.1166 17.3363C19.6972 17.786 20.0079 18.4156 20.0488 19.2251H17.7797C17.7634 18.9471 17.6611 18.7304 17.4731 18.5751C17.285 18.4115 17.0438 18.3298 16.7494 18.3298C16.496 18.3298 16.2915 18.3993 16.1362 18.5383C15.9808 18.6691 15.9031 18.8613 15.9031 19.1147C15.9031 19.3928 16.034 19.6094 16.2956 19.7648C16.5573 19.9202 16.9661 20.0878 17.5221 20.2677C18.0782 20.4557 18.5279 20.6356 18.8713 20.8073C19.2229 20.979 19.5254 21.2284 19.7789 21.5555C20.0324 21.8826 20.1591 22.3037 20.1591 22.8188C20.1591 23.3094 20.0324 23.755 19.7789 24.1557C19.5336 24.5564 19.1738 24.8753 18.6996 25.1124C18.2253 25.3495 17.6652 25.4681 17.0193 25.4681ZM27.7664 19.544C27.7664 20.0428 27.6519 20.5007 27.423 20.9177C27.194 21.3266 26.8424 21.6577 26.3682 21.9112C25.8939 22.1647 25.3052 22.2914 24.602 22.2914H23.3019V25.3822H21.2045V16.7721H24.602C25.2888 16.7721 25.8694 16.8907 26.3436 17.1278C26.8179 17.3649 27.1736 17.692 27.4107 18.109C27.6478 18.526 27.7664 19.0044 27.7664 19.544ZM24.4425 20.6234C24.8432 20.6234 25.1416 20.5293 25.3379 20.3413C25.5341 20.1532 25.6323 19.8874 25.6323 19.544C25.6323 19.2006 25.5341 18.9349 25.3379 18.7468C25.1416 18.5587 24.8432 18.4647 24.4425 18.4647H23.3019V20.6234H24.4425Z" fill="white"/>
</svg>
