<svg width="29" height="30" viewBox="0 0 29 30" fill="none" xmlns="http://www.w3.org/2000/svg">
<path d="M21.4866 24.3973C19.456 25.8726 17.0105 26.6672 14.5005 26.6672C11.9906 26.6672 9.54507 25.8726 7.51447 24.3973M19.7108 4.09924C21.9667 5.19953 23.8164 6.98575 24.9947 9.20191C26.1731 11.4181 26.6196 13.9504 26.2703 16.4359M2.73092 16.4358C2.3816 13.9503 2.82811 11.418 4.00646 9.2018C5.18481 6.98564 7.03451 5.19941 9.29044 4.09912" stroke="white" stroke-width="2.37708" stroke-linecap="round" stroke-linejoin="round"/>
<path d="M10.8996 19.3676C10.27 19.3676 9.70578 19.2654 9.207 19.061C8.70822 18.8565 8.30756 18.554 8.00502 18.1533C7.71066 17.7527 7.5553 17.2703 7.53895 16.7061H9.7712C9.8039 17.025 9.91429 17.2703 10.1024 17.442C10.2904 17.6055 10.5357 17.6873 10.8383 17.6873C11.149 17.6873 11.3943 17.6178 11.5742 17.4788C11.7541 17.3316 11.844 17.1313 11.844 16.8778C11.844 16.6652 11.7704 16.4894 11.6232 16.3504C11.4842 16.2114 11.3084 16.0969 11.0958 16.007C10.8914 15.917 10.597 15.8148 10.2127 15.7003C9.65672 15.5286 9.20291 15.3569 8.85131 15.1852C8.49971 15.0135 8.19717 14.76 7.94369 14.4248C7.69021 14.0895 7.56348 13.6521 7.56348 13.1124C7.56348 12.3111 7.85375 11.6855 8.4343 11.2358C9.01485 10.7779 9.7712 10.549 10.7033 10.549C11.6518 10.549 12.4164 10.7779 12.9969 11.2358C13.5775 11.6855 13.8882 12.3152 13.9291 13.1247H11.66C11.6437 12.8466 11.5415 12.63 11.3534 12.4746C11.1653 12.3111 10.9241 12.2293 10.6298 12.2293C10.3763 12.2293 10.1719 12.2988 10.0165 12.4378C9.86114 12.5686 9.78346 12.7608 9.78346 13.0143C9.78346 13.2923 9.91429 13.509 10.1759 13.6643C10.4376 13.8197 10.8464 13.9873 11.4025 14.1672C11.9585 14.3553 12.4082 14.5351 12.7516 14.7069C13.1032 14.8786 13.4058 15.128 13.6592 15.455C13.9127 15.7821 14.0395 16.2032 14.0395 16.7183C14.0395 17.2089 13.9127 17.6546 13.6592 18.0552C13.4139 18.4559 13.0542 18.7748 12.5799 19.0119C12.1057 19.249 11.5455 19.3676 10.8996 19.3676ZM21.6467 13.4435C21.6467 13.9423 21.5322 14.4002 21.3033 14.8172C21.0743 15.2261 20.7227 15.5572 20.2485 15.8107C19.7742 16.0642 19.1855 16.1909 18.4823 16.1909H17.1822V19.2817H15.0849V10.6716H18.4823C19.1691 10.6716 19.7497 10.7902 20.2239 11.0273C20.6982 11.2644 21.0539 11.5915 21.291 12.0085C21.5281 12.4255 21.6467 12.9039 21.6467 13.4435ZM18.3229 14.5229C18.7235 14.5229 19.022 14.4288 19.2182 14.2408C19.4144 14.0527 19.5126 13.787 19.5126 13.4435C19.5126 13.1001 19.4144 12.8344 19.2182 12.6463C19.022 12.4582 18.7235 12.3642 18.3229 12.3642H17.1822V14.5229H18.3229Z" fill="white"/>
</svg>
